<?xml version="1.0" standalone="no"?>
<!DOCTYPE svg PUBLIC "-//W3C//DTD SVG 1.1//EN" "http://www.w3.org/Graphics/SVG/1.1/DTD/svg11.dtd" >
<svg xmlns="http://www.w3.org/2000/svg">
<metadata></metadata>
<defs>
<font id="true_lightregular" horiz-adv-x="0" >
<font-face units-per-em="2048" ascent="1638" descent="-410" />
<missing-glyph horiz-adv-x="553" />
<glyph unicode="&#xe37;&#xe48;" d="M-731 922v82h414v102h92v-102h61v102h92v-184h-659zM-242 1167v185h92v-185h-92z" />
<glyph unicode="&#xd;" horiz-adv-x="553" />
<glyph unicode=" "  horiz-adv-x="553" />
<glyph unicode="&#x09;" horiz-adv-x="553" />
<glyph unicode="&#xa0;" horiz-adv-x="553" />
<glyph unicode="!" horiz-adv-x="539" d="M213 0v117h113v-117h-113zM213 965h113l-17 -732h-80z" />
<glyph unicode="&#x22;" horiz-adv-x="768" d="M248 664v301h86v-301h-86zM434 664v301h86v-301h-86z" />
<glyph unicode="#" horiz-adv-x="768" d="M47 303v74h154l30 211h-149v74h158l43 303h86l-43 -303h178l43 303h84l-41 -303h131v-74h-141l-29 -211h131v-74h-143l-43 -303h-84l43 303h-181l-43 -303h-84l43 303h-143zM287 377h178l31 211h-181z" />
<glyph unicode="$" horiz-adv-x="768" d="M117 729q0 51 18 92.5t50 73.5t75 52.5t94 29.5v88h72v-84q18 0 40 -1.5t46.5 -5t50 -9.5t49.5 -15l-14 -88q-32 19 -77 27t-95 10v-367q42 -23 83.5 -48.5t73.5 -58t52 -74t20 -95.5q0 -59 -19 -103.5t-50.5 -77t-73 -53t-86.5 -30.5v-115h-72v109q-3 -2 -7 -2h-9 q-71 0 -125 12t-92 29l8 98q43 -26 95 -41.5t118 -15.5q8 0 12 2v397q-43 23 -85.5 48.5t-76 57t-54.5 70.5t-21 88zM213 733q0 -53 40.5 -91.5t100.5 -70.5v320q-28 -5 -53.5 -17t-45 -31.5t-31 -46.5t-11.5 -63zM426 78q59 17 96 62.5t37 123.5q0 25 -10 47t-28 41.5 t-42.5 37t-52.5 34.5v-346z" />
<glyph unicode="%" horiz-adv-x="1382" d="M145 717q0 55 12.5 102.5t39.5 82t68.5 54t99.5 19.5q57 0 98 -19.5t67.5 -54t39 -82t12.5 -102.5q0 -56 -12.5 -104t-39 -82.5t-67.5 -54t-98 -19.5q-58 0 -99.5 19.5t-68.5 54t-39.5 82.5t-12.5 104zM231 717q0 -32 6 -65t21.5 -59.5t41.5 -43.5t65 -17q38 0 63.5 17 t40.5 43.5t21 59.5t6 65q0 31 -6 63.5t-21 59t-40.5 43t-63.5 16.5q-39 0 -65 -16.5t-41.5 -43t-21.5 -59t-6 -63.5zM365 -31l571 1026h80l-572 -1026h-79zM801 248q0 56 12.5 103.5t39 82.5t67.5 54.5t98 19.5t98.5 -19.5t68.5 -54.5t39.5 -82.5t12.5 -103.5t-12.5 -103 t-39.5 -81.5t-68.5 -54t-98.5 -19.5t-98 19.5t-67.5 54t-39 81.5t-12.5 103zM887 248q0 -32 6 -64t21 -58.5t40 -43t64 -16.5t64.5 16.5t41 43t21.5 58.5t6 64t-6 65t-21.5 59.5t-41 43t-64.5 16.5t-64 -16.5t-40 -43t-21 -59.5t-6 -65z" />
<glyph unicode="&#x26;" horiz-adv-x="922" d="M70 254q0 55 17.5 98.5t48 77.5t72 59.5t89.5 45.5q-22 25 -44.5 51.5t-40.5 55.5t-29 61t-11 69q0 51 22.5 90.5t59 65.5t83.5 39.5t95 13.5q43 0 83.5 -12t72 -36.5t50.5 -62t19 -88.5q0 -57 -19.5 -96.5t-52 -69t-74 -52t-85.5 -44.5l254 -284q46 66 65 141t19 153h82 q0 -94 -26.5 -184.5t-82.5 -165.5l166 -178h-123l-102 109q-59 -66 -132.5 -96.5t-160.5 -30.5q-61 0 -117.5 15.5t-100.5 48.5t-70.5 84t-26.5 122zM164 258q0 -50 18.5 -87.5t50 -63t72 -38t84.5 -12.5q32 0 65.5 8t65 23t59 35.5t48.5 46.5l-281 309q-35 -13 -67.5 -34 t-58 -49.5t-41 -63t-15.5 -74.5zM266 766q0 -29 10 -55t25.5 -50.5t35.5 -47t40 -44.5q31 15 64 32t60 39.5t44.5 53.5t17.5 74q0 68 -37.5 103.5t-99.5 35.5q-31 0 -59.5 -9t-51 -26.5t-36 -44t-13.5 -61.5z" />
<glyph unicode="'" horiz-adv-x="385" d="M150 664v301h86v-301h-86z" />
<glyph unicode="(" horiz-adv-x="385" d="M57 426q0 87 20 168t53.5 157.5t76.5 149t88 143.5h57q-38 -72 -75 -146t-66 -151t-47.5 -157t-18.5 -164t18.5 -164t47.5 -157t66 -151.5t75 -146.5h-57q-45 71 -88 143.5t-76.5 149t-53.5 158t-20 168.5z" />
<glyph unicode=")" horiz-adv-x="385" d="M33 -193q37 72 74.5 146.5t66.5 151.5t47.5 157t18.5 164t-18.5 164t-47.5 157t-66.5 151t-74.5 146h57q45 -71 87.5 -143.5t75.5 -149t53 -157.5t20 -168t-20 -168.5t-53 -158t-75.5 -149t-87.5 -143.5h-57z" />
<glyph unicode="*" horiz-adv-x="768" d="M127 752l25 79l202 -77l-10 211h80l-10 -211l200 77l27 -79l-203 -60l133 -164l-67 -53l-119 182l-117 -182l-67 53l129 164z" />
<glyph unicode="+" horiz-adv-x="829" d="M63 303v94h304v303h94v-303h303v-94h-303v-303h-94v303h-304z" />
<glyph unicode="," horiz-adv-x="385" d="M74 -184l82 301h114l-108 -301h-88z" />
<glyph unicode="-" horiz-adv-x="461" d="M57 326v94h346v-94h-346z" />
<glyph unicode="." horiz-adv-x="385" d="M135 0v117h113v-117h-113z" />
<glyph unicode="/" horiz-adv-x="385" d="M-43 -16l375 997h96l-375 -997h-96z" />
<glyph unicode="0" horiz-adv-x="768" d="M68 483q0 56 5.5 114.5t19.5 113.5t37 103t58 83.5t83.5 56.5t113.5 21q64 0 112 -21t83 -56.5t58.5 -83.5t37 -103t19 -113.5t5.5 -114.5q0 -50 -4.5 -106.5t-16.5 -111t-34 -104.5t-57 -88t-85 -60.5t-118 -22.5q-69 0 -119.5 22.5t-85.5 60.5t-57 88t-34 104.5 t-16.5 110.5t-4.5 107zM164 483q0 -40 2.5 -86t10 -91.5t22.5 -87.5t39.5 -74t60.5 -51t86 -19t86 19t60.5 51t39.5 74t22.5 87.5t10 91.5t2.5 86t-2.5 86t-10 91t-22.5 87t-39.5 74t-60.5 51t-86 19t-86 -19t-60.5 -51t-39.5 -74t-22.5 -87t-10 -91t-2.5 -86z" />
<glyph unicode="1" horiz-adv-x="768" d="M170 782l219 183h86v-965h-96v856l-156 -135z" />
<glyph unicode="2" horiz-adv-x="768" d="M70 0v82l221 246q43 48 84.5 98.5t74 100.5t52.5 98t20 92q0 38 -13 70t-35.5 55t-54 36t-67.5 13q-65 0 -119.5 -18t-111.5 -50l-17 86q26 13 56 25t61.5 21t63.5 14.5t61 5.5q59 0 110.5 -15t89.5 -46.5t59.5 -79.5t21.5 -113q0 -54 -24.5 -111t-63 -114.5t-86 -113.5 t-93.5 -108l-174 -192h463v-82h-579z" />
<glyph unicode="3" horiz-adv-x="768" d="M70 29l10 92q60 -29 120.5 -38t112.5 -9q43 0 87 11t79 35t57.5 62.5t22.5 93.5q0 62 -26.5 98.5t-66.5 55t-86 24t-85 5.5h-88v84h24q50 0 107.5 4.5t106.5 24t81.5 57.5t32.5 106q0 41 -20 70.5t-51.5 48.5t-71 28t-78.5 9q-57 0 -110.5 -13.5t-104.5 -37.5l-8 90 q52 20 112.5 32.5t120.5 12.5t115.5 -13.5t98 -42t68 -74.5t25.5 -110q0 -44 -15 -81t-41.5 -66.5t-63.5 -50.5t-80 -33v-2q48 -2 85.5 -21t63 -50t38.5 -73t13 -90q0 -66 -27 -117.5t-74.5 -87.5t-111 -54.5t-135.5 -18.5q-63 0 -121 8.5t-116 30.5z" />
<glyph unicode="4" horiz-adv-x="768" d="M33 223v94l432 648h123v-660h141v-82h-141v-223h-96v223h-459zM119 305h373v565h-3z" />
<glyph unicode="5" horiz-adv-x="768" d="M119 25v98q46 -25 101 -37t106 -12q47 0 92.5 13t81.5 39.5t58 67.5t22 97q0 112 -59 165.5t-183 53.5q-60 0 -107.5 -7.5t-101.5 -23.5l10 486h494v-82h-400l-6 -312q23 10 56.5 16.5t89.5 6.5q70 0 126 -19.5t95.5 -56t60.5 -89t21 -118.5q0 -80 -26 -140t-72.5 -100.5 t-111 -60.5t-140.5 -20q-53 0 -105.5 8t-101.5 27z" />
<glyph unicode="6" horiz-adv-x="768" d="M76 449q0 109 22 204.5t73 167t134.5 113t206.5 41.5q38 0 76.5 -6.5t77.5 -16.5l-9 -90q-29 13 -72 21t-85 8q-95 1 -158 -33.5t-100.5 -91.5t-53.5 -129t-16 -145h2q37 60 98 89t129 29q48 0 100.5 -13.5t96.5 -47.5t73 -92.5t29 -147.5q0 -71 -21 -129.5t-61.5 -100.5 t-99 -65.5t-133.5 -23.5q-96 0 -156.5 39.5t-94 104.5t-46 147t-12.5 168zM180 313q0 -45 12.5 -88t38.5 -76.5t65 -54t93 -20.5q53 0 93.5 17.5t68 48t41.5 72t14 89.5q0 106 -52 165.5t-153 59.5q-52 0 -93 -15.5t-69.5 -43.5t-43.5 -67t-15 -87z" />
<glyph unicode="7" horiz-adv-x="768" d="M80 883v82h590v-82l-375 -883h-105l385 883h-495z" />
<glyph unicode="8" horiz-adv-x="768" d="M63 248q0 55 17 95.5t47 70t71 50.5t89 38q-38 18 -73 41t-61.5 53t-42.5 68t-16 86q0 60 28.5 103t72 70t94.5 39.5t96 12.5q56 0 108.5 -13t92.5 -40.5t64 -70t24 -101.5q0 -45 -18 -82.5t-47 -68t-64.5 -55t-69.5 -42.5q49 -18 91 -38.5t73 -49.5t48.5 -69t17.5 -97 q0 -72 -28.5 -121t-74 -79.5t-102.5 -44t-115 -13.5t-115.5 15.5t-103.5 47t-74.5 80t-28.5 115.5zM160 248q0 -41 19.5 -73t51.5 -54.5t72 -34.5t82 -12t82.5 9.5t72 31.5t51 56.5t19.5 84.5q0 45 -23 77t-56.5 56t-73 41.5t-72.5 34.5q-42 -17 -82.5 -34.5t-72 -41.5 t-51 -57.5t-19.5 -83.5zM188 741q0 -41 19.5 -73t49 -56t64 -42.5t64.5 -32.5q32 16 66.5 36t62.5 44.5t46 55t18 68.5q0 39 -17.5 67t-45.5 46.5t-62 27.5t-68 9q-38 0 -73.5 -9t-63 -28t-44 -47t-16.5 -66z" />
<glyph unicode="9" horiz-adv-x="768" d="M68 657q0 70 21 128.5t61.5 100.5t99 65.5t133.5 23.5q96 0 156.5 -40t94 -104.5t46 -147t12.5 -167.5q0 -109 -22 -205t-73 -167t-134 -112.5t-205 -41.5q-40 0 -78.5 6.5t-77.5 15.5l9 92q31 -14 74 -22t85 -8q62 -1 111 14.5t85.5 44t61.5 67t40.5 83.5t22.5 94t7 98 h-4q-37 -62 -98 -91.5t-127 -29.5q-48 0 -101.5 13.5t-97.5 48t-73 93t-29 148.5zM164 664q0 -107 51 -166.5t154 -59.5q51 0 92 15.5t69 43.5t43 68t15 88q0 45 -12.5 87.5t-38 76t-64.5 54t-92 20.5t-93.5 -17.5t-68 -48t-41.5 -72t-14 -89.5z" />
<glyph unicode=":" horiz-adv-x="385" d="M135 0v117h113v-117h-113zM135 590v115h113v-115h-113z" />
<glyph unicode=";" horiz-adv-x="385" d="M74 -184l82 301h114l-108 -301h-88zM135 590v115h113v-115h-113z" />
<glyph unicode="&#x3c;" horiz-adv-x="829" d="M63 307v86l701 318v-93l-594 -268l594 -270v-90z" />
<glyph unicode="=" horiz-adv-x="829" d="M63 164v94h701v-94h-701zM63 440v97h701v-97h-701z" />
<glyph unicode="&#x3e;" horiz-adv-x="829" d="M66 -10v90l596 270l-596 268v93l700 -318v-86z" />
<glyph unicode="?" horiz-adv-x="690" d="M119 946q49 16 100.5 25.5t102.5 9.5q53 0 101 -14.5t84 -45t57.5 -77.5t21.5 -111q0 -57 -17.5 -99t-43.5 -77t-57 -66t-57 -65t-43.5 -75.5t-17.5 -96.5v-21h-88v19q0 63 17 108t42.5 80t55.5 65t55.5 62t42.5 71.5t17 94.5q0 39 -13.5 69.5t-37 52t-55.5 33t-69 11.5 q-57 0 -103 -12.5t-91 -26.5zM252 0v117h113v-117h-113z" />
<glyph unicode="@" horiz-adv-x="1106" d="M55 483q0 94 31.5 183.5t94 159.5t156 112.5t218.5 42.5q91 0 178.5 -27t156.5 -79.5t111.5 -131t42.5 -180.5q0 -88 -32.5 -158.5t-80 -119.5t-101.5 -75t-97 -26q-92 0 -110 86h-2q-13 -15 -28 -30.5t-35 -28t-46 -20t-61 -7.5q-41 0 -75.5 16.5t-59 45t-38.5 66.5 t-14 81q0 67 23 134t65 120.5t101 87t131 33.5q48 0 88 -25.5t63 -80.5l29 81h88l-119 -374q-12 -38 -12 -70q0 -12 7 -21.5t24 -9.5q38 0 74.5 23.5t65 64t45.5 94t17 113.5q0 81 -33 143.5t-88 105t-127.5 65t-150.5 22.5q-87 0 -162 -31.5t-129.5 -87t-85.5 -131.5 t-31 -166t31 -166.5t85.5 -132t129.5 -87t162 -31.5q118 0 212 42t153 111h84q-32 -55 -78.5 -98.5t-104.5 -74t-125 -46.5t-141 -16q-125 0 -218.5 43t-156 113t-94 159.5t-31.5 183.5zM369 401q0 -63 27.5 -98t70.5 -35q51 0 92.5 29.5t71.5 73t46.5 94.5t16.5 94 q0 37 -10.5 61t-26.5 38t-35.5 20t-37.5 6q-33 0 -71 -21t-70.5 -58.5t-53.5 -89.5t-20 -114z" />
<glyph unicode="A" horiz-adv-x="922" d="M18 0l396 965h106l383 -965h-98l-105 258h-485l-104 -258h-93zM250 342h420l-209 532z" />
<glyph unicode="B" horiz-adv-x="768" d="M111 0v965h229q59 0 114 -11.5t97.5 -38.5t68 -73t25.5 -115q0 -93 -42.5 -147.5t-133.5 -71.5v-4q46 -8 84 -27t65 -48.5t41.5 -68t14.5 -86.5q0 -78 -29.5 -130.5t-80.5 -84.5t-118.5 -45.5t-142.5 -13.5h-192zM207 82h98q48 0 97 8t88.5 29t64.5 57.5t25 93.5 q0 64 -25.5 102t-66.5 58t-92.5 25.5t-104.5 5.5h-84v-379zM209 543h106q38 0 79.5 6.5t76.5 26t57.5 54.5t22.5 93q0 52 -21.5 83.5t-53.5 48.5t-68.5 22.5t-67.5 5.5h-131v-340z" />
<glyph unicode="C" horiz-adv-x="922" d="M78 483q0 110 34 201.5t97.5 157.5t153.5 102.5t202 36.5q22 0 52 -1.5t61.5 -5.5t60.5 -11t47 -17l-6 -90q-22 12 -49 20.5t-55.5 13.5t-57 7t-53.5 2q-94 0 -166.5 -31.5t-122.5 -87t-76 -132t-26 -165.5q0 -91 25.5 -167.5t75 -132t122.5 -86.5t168 -31q24 0 53 2 t58 6.5t56 13t48 21.5l6 -84q-20 -12 -48 -19.5t-59 -12.5t-61 -7t-53 -2q-114 0 -204 36t-153 101.5t-96.5 157.5t-33.5 204z" />
<glyph unicode="D" horiz-adv-x="922" d="M111 0v965h239q130 0 221 -35.5t149 -99.5t84.5 -152.5t26.5 -194.5q0 -131 -41.5 -223t-115 -150t-174.5 -84t-221 -26h-168zM207 82h78q103 0 186.5 22t142.5 70.5t91 126t32 188.5t-31 186t-84 121.5t-124 66.5t-152 20h-139v-801z" />
<glyph unicode="E" horiz-adv-x="690" d="M119 0v965h473v-82h-377v-344h356v-84h-356v-373h393v-82h-489z" />
<glyph unicode="F" horiz-adv-x="614" d="M106 0v965h459v-82h-362v-344h346v-84h-346v-455h-97z" />
<glyph unicode="G" horiz-adv-x="997" d="M88 483q0 110 34 201.5t97.5 157.5t153.5 102.5t202 36.5q28 0 62.5 -2.5t70 -7.5t68.5 -14t58 -21l-11 -88q-57 31 -121 41t-127 10q-93 0 -166 -31.5t-123 -87t-76 -132t-26 -165.5q0 -91 25.5 -167.5t75 -132t122.5 -86.5t168 -31q22 0 50.5 1.5t57 5.5t54 10.5 t43.5 16.5v340h-225v82h319v-479q-74 -32 -146 -45.5t-153 -13.5q-114 0 -204.5 36t-153.5 101.5t-96 157.5t-33 204z" />
<glyph unicode="H" horiz-adv-x="922" d="M121 0v965h96v-426h488v426h96v-965h-96v455h-488v-455h-96z" />
<glyph unicode="I" horiz-adv-x="307" d="M106 0v965h97v-965h-97z" />
<glyph unicode="J" horiz-adv-x="461" d="M18 0v84q20 -9 45.5 -13.5t45.5 -4.5q40 0 67 15t43.5 40t23.5 57.5t7 67.5v719h96v-717q0 -56 -13 -104t-40.5 -83.5t-70.5 -56t-103 -20.5q-23 0 -50.5 4t-50.5 12z" />
<glyph unicode="K" horiz-adv-x="844" d="M131 0v965h96v-433l435 433h122l-467 -455l508 -510h-131l-467 483v-483h-96z" />
<glyph unicode="L" horiz-adv-x="614" d="M111 0v965h96v-883h387v-82h-483z" />
<glyph unicode="M" horiz-adv-x="1229" d="M119 0v965h147l352 -848l355 848h137v-965h-96v870h-2l-350 -870h-82l-363 870h-2v-870h-96z" />
<glyph unicode="N" horiz-adv-x="922" d="M106 0v965h121l490 -848h4v848h94v-965h-129l-481 831h-2v-831h-97z" />
<glyph unicode="O" horiz-adv-x="997" d="M74 483v7q0 93 24 180q26 90 79 159t133.5 110.5t189.5 41.5q108 0 188 -41.5t132.5 -110.5t78.5 -159q25 -87 25 -180v-7q-1 -111 -28.5 -203t-81 -158t-132.5 -102t-182 -36q-105 0 -184 36t-132 102t-81 158t-29 203zM170 483q0 -77 19.5 -151.5t60 -133.5 t102.5 -95.5t148 -36.5q84 0 146 36.5t102 95.5t59.5 133.5t19.5 151.5q0 76 -19.5 150.5t-59.5 133.5t-102 95.5t-146 36.5q-86 0 -148 -36.5t-102.5 -95.5t-60 -133.5t-19.5 -150.5z" />
<glyph unicode="P" horiz-adv-x="690" d="M119 0v965h237q69 0 124 -17t94 -51.5t60 -86t21 -120.5q0 -67 -24 -117.5t-65.5 -85t-98 -52t-121.5 -17.5h-131v-418h-96zM215 500h66q54 0 104 5t88.5 24.5t62 57.5t23.5 103q0 93 -48.5 143t-141.5 50h-154v-383z" />
<glyph unicode="Q" horiz-adv-x="997" d="M74 483v7q0 93 24 180q26 90 79 159t133.5 110.5t189.5 41.5q108 0 188 -41.5t132.5 -110.5t78.5 -159q25 -87 25 -180v-7q-1 -85 -17.5 -159.5t-48 -134.5t-77.5 -104t-107 -69l203 -196h-127l-172 170q-10 -2 -19 -3t-20 -1q-10 -2 -20 -2h-19q-105 0 -184 36t-132 102 t-81 158t-29 203zM170 483q0 -77 19.5 -151.5t60 -133.5t102.5 -95.5t148 -36.5q84 0 146 36.5t102 95.5t59.5 133.5t19.5 151.5q0 76 -19.5 150.5t-59.5 133.5t-102 95.5t-146 36.5q-86 0 -148 -36.5t-102.5 -95.5t-60 -133.5t-19.5 -150.5z" />
<glyph unicode="R" horiz-adv-x="768" d="M121 0v965h250q64 0 116.5 -14.5t89 -44.5t56.5 -77.5t20 -113.5q0 -47 -16.5 -85.5t-45.5 -67t-67.5 -46.5t-83.5 -24v-3q28 -4 47 -13.5t32.5 -24t23 -34.5t20.5 -44l166 -373h-106l-140 326q-20 48 -39 74t-40.5 38t-48 14.5t-60.5 2.5h-78v-455h-96zM217 539h100 q42 0 85.5 8.5t78 29t56.5 54t22 84.5q0 59 -19.5 92.5t-53 50.5t-78 21t-93.5 4h-98v-344z" />
<glyph unicode="S" horiz-adv-x="690" d="M80 729q0 58 23.5 105t65 79.5t97 50t119.5 17.5q18 0 40.5 -1.5t47 -5t51 -9.5t51.5 -15l-16 -88q-32 19 -79 28t-95 9q-38 0 -75 -8.5t-67 -28t-48.5 -51.5t-18.5 -78q0 -36 19 -64.5t50 -52t71 -45t81 -43.5t81 -47.5t71 -57.5t50 -73t19 -94q0 -73 -28.5 -124.5 t-74 -84.5t-102 -48t-112.5 -15q-71 0 -126 12t-93 29l10 98q44 -26 94.5 -41.5t118.5 -15.5q45 0 84.5 11.5t69 36t46.5 62t17 88.5q0 47 -32.5 82.5t-82 66t-106.5 60.5t-106.5 65.5t-82 81.5t-32.5 109z" />
<glyph unicode="T" horiz-adv-x="690" d="M14 883v82h664v-82h-285v-883h-94v883h-285z" />
<glyph unicode="U" horiz-adv-x="922" d="M113 338v627h94v-627q0 -59 16.5 -109t48.5 -86t79.5 -56.5t109.5 -20.5q63 0 111 20.5t80 56.5t48.5 86t16.5 109v627h94v-627q0 -71 -16 -125t-43.5 -93.5t-63 -65.5t-74 -41.5t-78.5 -22t-75 -6.5t-74 6.5t-78 22t-74.5 41.5t-62.5 65.5t-43 93.5t-16 125z" />
<glyph unicode="V" horiz-adv-x="844" d="M8 965h101l311 -869l321 869h95l-367 -965h-100z" />
<glyph unicode="W" horiz-adv-x="1305" d="M12 965h99l237 -856h2l248 856h115l243 -856h2l244 856h90l-278 -965h-115l-244 856h-2l-250 -856h-114z" />
<glyph unicode="X" horiz-adv-x="844" d="M10 0l359 508l-324 457h113l270 -390l274 390h107l-326 -457l353 -508h-117l-295 440l-305 -440h-109z" />
<glyph unicode="Y" horiz-adv-x="844" d="M16 965h111l295 -471l303 471h102l-358 -555v-410h-94v410z" />
<glyph unicode="Z" horiz-adv-x="690" d="M29 0v82l503 801h-491v82h592v-82l-500 -801h516v-82h-620z" />
<glyph unicode="[" horiz-adv-x="385" d="M96 -193v1237h223v-65h-137v-1106h137v-66h-223z" />
<glyph unicode="\" horiz-adv-x="385" d="M-43 981h96l375 -997h-96z" />
<glyph unicode="]" horiz-adv-x="385" d="M66 -127h137v1106h-137v65h223v-1237h-223v66z" />
<glyph unicode="^" horiz-adv-x="829" d="M70 367l301 598h88l301 -598h-98l-248 503l-246 -503h-98z" />
<glyph unicode="_" horiz-adv-x="690" d="M0 -104h690v-68h-690v68z" />
<glyph unicode="`" horiz-adv-x="307" d="M-6 989h110l127 -198h-63z" />
<glyph unicode="a" horiz-adv-x="690" d="M55 182q0 59 19.5 101t52.5 69.5t76.5 43t92 23t98 9.5t95.5 2h17v35q0 91 -36 136.5t-124 45.5q-56 0 -107.5 -13t-101.5 -44v84q21 10 47.5 18.5t54.5 15t55.5 10t51.5 3.5q130 0 189 -62t59 -200v-312q0 -42 0.5 -76t5.5 -71h-86v113h-2q-15 -32 -39.5 -56t-54.5 -40 t-64 -24.5t-67 -8.5q-75 0 -120.5 22t-70 53.5t-33 65t-8.5 57.5zM152 184q0 -35 11.5 -59t31 -39t46 -22t56.5 -7q77 0 119 29t62 70t24 84.5t4 72.5v41h-25q-57 0 -115.5 -4.5t-106 -22t-77.5 -51.5t-30 -92z" />
<glyph unicode="b" horiz-adv-x="768" d="M100 0v1036h88v-450h2q5 13 20.5 36t42.5 45t66 38t91 16q78 0 133 -27.5t90 -76.5t51 -116.5t16 -148.5q0 -78 -18 -145.5t-54 -117t-90.5 -77.5t-127.5 -28q-76 0 -130 30.5t-90 98.5h-2v-113h-88zM188 352q0 -48 11 -100.5t35.5 -95.5t64.5 -71t98 -28q62 0 102.5 27 t64 69.5t33 95t9.5 103.5t-9.5 103.5t-33 95t-64 69.5t-102.5 27q-60 0 -100 -28t-64 -71t-34.5 -95.5t-10.5 -100.5z" />
<glyph unicode="c" horiz-adv-x="614" d="M57 352q0 81 25 149t71 117t110.5 76t142.5 27q63 0 107 -10.5t62 -16.5l-8 -84q-35 16 -74.5 26.5t-74.5 10.5q-64 0 -113.5 -22t-83.5 -61t-51.5 -93.5t-17.5 -118.5q0 -60 17.5 -113.5t50.5 -94t80.5 -64t107.5 -23.5q42 0 80.5 9t78.5 24l8 -82q-45 -15 -88 -19.5 t-94 -4.5q-84 0 -147 30t-105 80.5t-63 117t-21 140.5z" />
<glyph unicode="d" horiz-adv-x="768" d="M68 352q0 81 16.5 148.5t51.5 116.5t90 76.5t132 27.5q52 0 91 -16t66 -38t42.5 -45t20.5 -36h2v450h88v-1036h-88v113h-2q-36 -68 -90 -98.5t-130 -30.5q-73 0 -127.5 28t-90.5 77.5t-54 117t-18 145.5zM164 352q0 -51 9.5 -103.5t33 -95t64 -69.5t102.5 -27 q57 0 96.5 28t64 71t35.5 95.5t11 100.5t-11 100.5t-35.5 95.5t-64 71t-96.5 28q-62 0 -102.5 -27t-64 -69.5t-33 -95t-9.5 -103.5z" />
<glyph unicode="e" horiz-adv-x="690" d="M57 352q0 81 21.5 148.5t60.5 116.5t93.5 76.5t121.5 27.5q75 0 128 -28t87 -75.5t50 -111t16 -133.5v-45h-483q0 -56 14.5 -105.5t44 -86.5t73 -58t101.5 -21q24 0 52 4.5t55 12t51 17.5t39 20v-88q-47 -19 -101.5 -29t-103.5 -10q-88 0 -149 28t-99 77t-55 116.5 t-17 146.5zM152 401h387q0 46 -10 90.5t-31.5 79t-56 55.5t-83.5 21q-48 0 -86 -22t-64.5 -57t-41 -79t-14.5 -88z" />
<glyph unicode="f" horiz-adv-x="461" d="M27 631v74h141v51q0 55 3.5 108.5t21.5 95.5t55.5 67.5t105.5 25.5q22 0 46 -3t36 -10l-4 -77q-14 8 -32.5 12t-37.5 4q-44 0 -66 -21.5t-31 -53.5t-9 -69.5v-68.5v-61h158v-74h-158v-631h-88v631h-141z" />
<glyph unicode="g" horiz-adv-x="768" d="M68 352q0 81 16.5 148.5t51.5 116.5t90 76.5t132 27.5q36 0 65.5 -3t55.5 -13.5t50 -29.5t49 -50h2v80h88v-648q0 -73 -17.5 -137.5t-56.5 -113t-102 -77t-154 -28.5q-35 0 -68 4.5t-60.5 10.5t-49.5 12t-35 10l6 88q40 -22 95 -35.5t112 -13.5q84 0 133 28.5t73.5 77.5 t31 114.5t6.5 139.5h-2q-36 -75 -91.5 -106t-123.5 -31q-85 0 -142 33t-91.5 84.5t-49 114t-14.5 120.5zM164 352q0 -51 11 -101t35 -89.5t62.5 -63.5t94.5 -24q59 0 99.5 25.5t66 65.5t36.5 89.5t11 97.5q0 64 -10.5 118t-34.5 93.5t-63.5 61.5t-98.5 22q-62 0 -102.5 -27 t-64 -69.5t-33 -95t-9.5 -103.5z" />
<glyph unicode="h" horiz-adv-x="768" d="M109 0v1036h88v-450h2q28 59 85 97t136 38q70 0 116.5 -22.5t73.5 -62t38 -94.5t11 -120v-422h-88v420q0 46 -5.5 87.5t-23 72.5t-50 49t-86.5 18q-59 0 -98.5 -25t-64.5 -64t-35.5 -87t-10.5 -94v-377h-88z" />
<glyph unicode="i" horiz-adv-x="307" d="M109 0v705h88v-705h-88zM109 893v117h88v-117h-88z" />
<glyph unicode="j" horiz-adv-x="307" d="M-39 -215q9 -3 25 -5.5t28 -2.5q33 0 52 10.5t28.5 29t12 43t2.5 52.5v793h88v-805q0 -42 -7 -78.5t-25 -63.5t-49 -42t-79 -15q-28 0 -46.5 2.5t-29.5 5.5v76zM109 893v117h88v-117h-88z" />
<glyph unicode="k" horiz-adv-x="690" d="M109 0v1036h88v-620l315 289h111l-344 -312l387 -393h-121l-348 362v-362h-88z" />
<glyph unicode="l" horiz-adv-x="307" d="M109 0v1036h88v-1036h-88z" />
<glyph unicode="m" horiz-adv-x="1151" d="M104 705h84v-119h2q11 18 25.5 41t39 44t62 35.5t93.5 14.5q24 0 53 -6t56 -22.5t48.5 -45.5t30.5 -76h2q12 31 33 58.5t50 48t65 32t77 11.5q53 0 95 -17.5t70.5 -49t43.5 -74.5t15 -95v-485h-88v469q0 37 -7.5 69.5t-25 56.5t-46.5 38t-71 14q-35 0 -69 -15.5 t-60.5 -47.5t-42.5 -80.5t-16 -114.5v-389h-88v469q0 37 -7.5 69.5t-25 56.5t-46.5 38t-71 14q-35 0 -69 -15.5t-60.5 -47.5t-42.5 -80.5t-16 -114.5v-389h-88v539q0 42 -0.5 83t-4.5 83z" />
<glyph unicode="n" horiz-adv-x="768" d="M104 705h84v-125h2q11 24 27.5 49t43 45.5t65 33.5t94.5 13q65 0 110.5 -20.5t74 -56.5t41.5 -85.5t13 -107.5v-451h-88v428q0 100 -38.5 159.5t-126.5 59.5q-60 0 -100 -23.5t-64.5 -61t-34.5 -83t-10 -90.5v-389h-88v539q0 42 -0.5 83t-4.5 83z" />
<glyph unicode="o" horiz-adv-x="768" d="M55 352q0 72 19.5 139t60 118t102.5 81.5t148 30.5q85 0 147 -30.5t102 -81.5t59.5 -118t19.5 -139t-19.5 -138.5t-59.5 -117.5t-102 -81.5t-147 -30.5q-86 0 -148 30.5t-102.5 81.5t-60 117.5t-19.5 138.5zM152 352q0 -62 14.5 -115.5t44 -93.5t73 -63t101.5 -23 q57 0 100.5 23t73 63t44.5 93.5t15 115.5q0 61 -15 115t-44.5 94t-73 63t-100.5 23q-58 0 -101.5 -23t-73 -63t-44 -94t-14.5 -115z" />
<glyph unicode="p" horiz-adv-x="768" d="M100 -291v996h88l-6 -130h2q9 15 24.5 39.5t41.5 48t65 41t95 17.5q78 0 133 -27.5t90 -76.5t51 -116.5t16 -148.5q0 -78 -18 -145.5t-54 -117t-90.5 -77.5t-127.5 -28q-84 0 -136 34t-84 103h-2v-412h-88zM188 352q0 -48 11 -100.5t35.5 -95.5t64.5 -71t98 -28 q62 0 102.5 27t64 69.5t33 95t9.5 103.5t-9.5 103.5t-33 95t-64 69.5t-102.5 27q-58 0 -98 -28t-64.5 -71t-35.5 -95.5t-11 -100.5z" />
<glyph unicode="q" horiz-adv-x="768" d="M68 352q0 81 16.5 148.5t51.5 116.5t90 76.5t132 27.5q56 0 95 -17t64.5 -39.5t40 -44t20.5 -30.5h2v115h88v-996h-88v412h-2q-32 -69 -84 -103t-136 -34q-73 0 -127.5 28t-90.5 77.5t-54 117t-18 145.5zM164 352q0 -51 9.5 -103.5t33 -95t64 -69.5t102.5 -27 q57 0 96.5 28t64 71t35.5 95.5t11 100.5t-11 100.5t-35.5 95.5t-64 71t-96.5 28q-62 0 -102.5 -27t-64 -69.5t-33 -95t-9.5 -103.5z" />
<glyph unicode="r" horiz-adv-x="461" d="M104 705h86v-136h3q12 30 29.5 57.5t40 48.5t50.5 33.5t62 12.5q15 0 32 -2.5t29 -5.5v-90q-14 3 -31 5.5t-32 2.5q-53 0 -87 -26.5t-53.5 -67.5t-27.5 -91t-8 -98v-348h-88v547v50t-0.5 38.5t-1.5 33.5t-3 36z" />
<glyph unicode="s" horiz-adv-x="539" d="M47 16l8 86q41 -20 87.5 -32.5t97.5 -12.5q31 0 59 8.5t49.5 25t34 40t12.5 53.5q0 41 -25 69t-62.5 49.5t-81.5 40.5t-81.5 43.5t-62.5 58.5t-25 85q0 52 19.5 88.5t51.5 59.5t73.5 33t85.5 10q14 0 34 -1.5t43 -5.5t48 -9.5t49 -14.5l-8 -76q-35 16 -78 24.5t-80 8.5 q-33 0 -61 -6t-48 -19.5t-31.5 -36t-11.5 -55.5t26 -55.5t64.5 -42t84 -39t84 -47t64.5 -66.5t26 -96q0 -56 -24 -94t-60.5 -61.5t-80 -34t-83.5 -10.5q-51 0 -100.5 7t-96.5 25z" />
<glyph unicode="t" horiz-adv-x="461" d="M27 631v74h139v169l88 31v-200h160v-74h-160v-457q0 -24 4.5 -45t15 -37t28.5 -25.5t44 -9.5t44 5.5t38 11.5l4 -72q-15 -6 -44.5 -12t-61.5 -6q-58 0 -90 18.5t-47.5 50.5t-19 75t-3.5 91v412h-139z" />
<glyph unicode="u" horiz-adv-x="768" d="M109 254v451h88v-429q0 -50 9 -90.5t29.5 -69t52.5 -44t77 -15.5q59 0 98.5 24t63.5 61.5t34 83t10 89.5v390h88v-539q0 -40 1 -81.5t6 -84.5h-86v125h-2q-11 -24 -27.5 -49t-42.5 -45.5t-64.5 -33.5t-93.5 -13q-65 0 -111 20.5t-75 56.5t-42 85.5t-13 107.5z" />
<glyph unicode="v" horiz-adv-x="614" d="M12 705h97l194 -609h2l205 609h92l-248 -705h-102z" />
<glyph unicode="w" horiz-adv-x="1075" d="M10 705h94l187 -609h2l196 609h105l186 -609h4l195 609h86l-231 -705h-105l-192 610h-2l-193 -610h-106z" />
<glyph unicode="x" horiz-adv-x="614" d="M10 0l248 373l-223 332h108l166 -263l170 263h101l-220 -332l242 -373h-106l-187 303l-196 -303h-103z" />
<glyph unicode="y" horiz-adv-x="614" d="M12 705h97l196 -588h2l203 588h92l-283 -809q-13 -37 -29 -72t-37.5 -62.5t-50 -44t-65.5 -16.5q-49 0 -92 12l8 74q13 -5 27 -7.5t37 -2.5q28 0 48 11t34 31t24.5 48t20.5 63l18 62z" />
<glyph unicode="z" horiz-adv-x="614" d="M45 0v74l424 557h-408v74h508v-74l-424 -557h424v-74h-524z" />
<glyph unicode="{" horiz-adv-x="385" d="M53 393v66q28 0 48 14.5t33 40t19.5 59.5t6.5 72v234q0 40 11 70.5t30 51.5t45 32t55 11h76v-65h-68q-17 0 -28.5 -10.5t-19 -28.5t-10.5 -41.5t-3 -48.5v-227q0 -51 -13.5 -86.5t-32.5 -59t-39 -35t-32 -14.5v-4q12 -3 32 -15t39 -35t32.5 -59t13.5 -88v-225 q0 -26 3 -49t10.5 -41t19 -28.5t28.5 -10.5h68v-66h-78q-29 0 -54 11.5t-44 33t-30 52.5t-11 71v236q0 37 -6.5 70t-19.5 58t-33 39.5t-48 14.5z" />
<glyph unicode="|" horiz-adv-x="307" d="M106 -346v1382h97v-1382h-97z" />
<glyph unicode="}" horiz-adv-x="385" d="M6 -127h70q17 0 28.5 10.5t19 28.5t10.5 41t3 49v227q0 51 13.5 86.5t32.5 59t39 35t32 14.5v4q-12 3 -32 14.5t-39 35t-32.5 59.5t-13.5 88v223q0 26 -3 50t-10.5 42t-19 28.5t-28.5 10.5h-70v65h78q29 0 54.5 -11t44 -32.5t29.5 -52.5t11 -71v-236q0 -37 6.5 -70 t20 -58t34 -39.5t48.5 -14.5v-66q-28 0 -48.5 -14.5t-34 -40t-20 -59.5t-6.5 -72v-234q0 -40 -11 -71t-29.5 -52t-44.5 -32t-56 -11h-76v66z" />
<glyph unicode="~" horiz-adv-x="829" d="M96 322q11 22 26 44.5t36 41t48 30t62 11.5q38 0 79 -16.5t79 -35.5q40 -20 74.5 -35.5t62.5 -15.5q21 0 38 9t31.5 23t27 32.5t24.5 38.5l49 -72q-11 -22 -26 -44t-36 -40t-48.5 -29.5t-61.5 -11.5q-38 0 -77.5 16.5t-80.5 34.5q-40 19 -74.5 34t-62.5 15 q-21 0 -38 -8.5t-31.5 -23t-27 -32.5t-24.5 -36z" />
<glyph unicode="&#xa4;" horiz-adv-x="840" d="M8 164l148 145q-62 83 -62 193q0 114 62 188l-148 150l76 71l145 -145q79 59 193 59q55 0 105.5 -16t82.5 -43l150 145l71 -71l-145 -150q59 -79 59 -188q0 -114 -59 -193l145 -145l-71 -76l-150 148q-15 -13 -36 -23.5t-47 -20.5q-53 -18 -105 -18q-110 0 -193 62 l-145 -148zM197 502q0 -94 63 -164q65 -68 162 -68q92 0 158 68q63 63 63 164q0 46 -16.5 87t-45.5 72t-70 49.5t-89 18.5q-96 0 -160 -67q-65 -73 -65 -160z" />
<glyph unicode="&#xa9;" horiz-adv-x="1106" d="M53 483q0 103 39.5 194t107.5 158.5t159 106.5t194 39t194 -39t159 -106.5t107.5 -158.5t39.5 -194q0 -104 -39.5 -194.5t-107.5 -158.5t-159 -107t-194 -39t-194 39t-159 107t-107.5 158.5t-39.5 194.5zM150 483q0 -90 30.5 -167.5t84.5 -135t128.5 -90.5t161.5 -33 q86 0 159.5 33t127 90.5t84 135t30.5 167.5q0 89 -30.5 166.5t-84 134.5t-127 90t-159.5 33q-87 0 -161.5 -33t-128.5 -90t-84.5 -134.5t-30.5 -166.5zM272 483q0 67 20 124t58.5 99t93 65.5t123.5 23.5q47 0 89 -13.5t75 -39.5t55 -65.5t29 -90.5h-82q-12 60 -56 97.5 t-110 37.5q-48 0 -85 -18t-62 -49.5t-38 -75t-13 -95.5q0 -48 13.5 -91.5t39.5 -75.5t63.5 -51t85.5 -19q65 0 108 39t54 102h84q-11 -50 -33.5 -90t-55 -67.5t-72.5 -42.5t-85 -15q-68 0 -123.5 24t-94.5 65.5t-60 98.5t-21 123z" />
<glyph unicode="&#xab;" horiz-adv-x="768" d="M125 373l194 282h82l-184 -282l184 -285h-82zM369 373l192 282h82l-184 -282l184 -285h-82z" />
<glyph unicode="&#xac;" horiz-adv-x="768" d="M46 297v90h666v-268h-82v178h-584z" />
<glyph unicode="&#xad;" horiz-adv-x="829" d="M63 303v94h701v-94h-701z" />
<glyph unicode="&#xae;" horiz-adv-x="1106" d="M53 483q0 103 39.5 194t107.5 158.5t159 106.5t194 39t194 -39t159 -106.5t107.5 -158.5t39.5 -194q0 -104 -39.5 -194.5t-107.5 -158.5t-159 -107t-194 -39t-194 39t-159 107t-107.5 158.5t-39.5 194.5zM150 483q0 -90 30.5 -167.5t84.5 -135t128.5 -90.5t161.5 -33 q86 0 159.5 33t127 90.5t84 135t30.5 167.5q0 89 -30.5 166.5t-84 134.5t-127 90t-159.5 33q-87 0 -161.5 -33t-128.5 -90t-84.5 -134.5t-30.5 -166.5zM362 190v586h224q200 0 200 -166q0 -35 -10.5 -64.5t-30.5 -51t-48 -33.5t-62 -12l166 -259h-101l-161 259h-82v-259h-95 zM457 524h114q28 0 50 3.5t37.5 13.5t23.5 27.5t8 45.5q0 25 -10 42t-27 26.5t-38.5 13.5t-43.5 4h-114v-176z" />
<glyph unicode="&#xb0;" horiz-adv-x="541" d="M66 713q0 40 15.5 77t42.5 64.5t63.5 44t78.5 16.5q43 0 80.5 -16t65 -43t43.5 -64t16 -79t-16 -79t-43.5 -64.5t-65 -43.5t-80.5 -16q-41 0 -77 15.5t-63.5 43t-43.5 64.5t-16 80zM121 713q0 -30 11.5 -57t31 -47t46 -32t56.5 -12q61 0 105 43q45 46 45 105 q0 30 -12 56.5t-32.5 46t-47.5 31t-58 11.5t-57.5 -11t-46 -30.5t-30.5 -46t-11 -57.5z" />
<glyph unicode="&#xb6;" horiz-adv-x="727" d="M0 858q0 153 94 229q90 66 248 66h389v-41h-102v-1356h-62v1356h-145v-1356h-55v805q-168 0 -263 62q-104 74 -104 235z" />
<glyph unicode="&#xb7;" horiz-adv-x="338" d="M96 449q0 30 20.5 50.5t53.5 20.5q31 0 51.5 -21.5t20.5 -49.5q0 -31 -21.5 -52.5t-50.5 -21.5q-33 0 -53.5 20.5t-20.5 53.5z" />
<glyph unicode="&#xbb;" horiz-adv-x="768" d="M125 88l184 285l-184 282h82l194 -282l-194 -285h-82zM369 88l182 285l-182 282h80l194 -282l-194 -285h-80z" />
<glyph unicode="&#xd7;" horiz-adv-x="829" d="M98 102l250 250l-250 250l68 68l250 -250l248 250l69 -68l-250 -250l250 -250l-69 -67l-248 250l-250 -250z" />
<glyph unicode="&#xf7;" horiz-adv-x="829" d="M63 303v94h701v-94h-701zM326 78q0 18 7.5 34.5t19.5 29t28 19.5t33 7q18 0 34 -7.5t28.5 -20t20 -28.5t7.5 -34q0 -16 -7.5 -32t-20 -28.5t-28.5 -20t-34 -7.5q-17 0 -33 7.5t-28 19.5t-19.5 28t-7.5 33zM326 623q0 18 7.5 34t19.5 28t28 19t33 7q18 0 34 -7t28.5 -19 t20 -28t7.5 -34q0 -17 -7.5 -33t-20 -28t-28.5 -19.5t-34 -7.5q-17 0 -33 7t-28 19t-19.5 28t-7.5 34z" />
<glyph unicode="&#xe00;" horiz-adv-x="205" />
<glyph unicode="&#xe01;" horiz-adv-x="817" d="M72 0v547q0 54 20 105.5t61.5 92.5t104 66t148.5 25t149.5 -25t105.5 -66t63 -92.5t21 -105.5v-547h-92v535q0 57 -20 98.5t-54 68.5t-79 40.5t-94 13.5t-93 -13.5t-77 -40.5t-52.5 -68.5t-19.5 -98.5v-535h-92z" />
<glyph unicode="&#xe02;" horiz-adv-x="717" d="M72 240v229q0 36 9.5 59.5t24.5 40.5t31.5 28.5t31.5 22.5t24.5 24.5t9.5 33.5q0 21 -8 34t-22.5 20t-35.5 9t-47 2h-18v76h75q31 0 57.5 -5.5t46.5 -19t32 -36t14 -56.5q1 -40 -8 -66t-24 -44t-32.5 -31t-32.5 -27t-25.5 -32.5t-10.5 -46.5v-203q0 -58 17.5 -94.5 t45 -57.5t62 -29t69.5 -8q36 0 71 8t62.5 29t44.5 57.5t17 94.5v567h92v-579q0 -124 -73.5 -190t-213.5 -66q-137 0 -211.5 66t-74.5 190z" />
<glyph unicode="&#xe03;" horiz-adv-x="717" d="M51 727v92h58l53 -41l55 41h72v-80q0 -43 -9.5 -70t-23 -45t-30 -30.5t-30 -27t-23 -34.5t-9.5 -53v-227q0 -58 17.5 -94.5t45 -57.5t62 -29t69.5 -8q36 0 71 8t62.5 29t44.5 57.5t17 94.5v567h92v-579q0 -124 -73.5 -190t-213.5 -66q-137 0 -211.5 66t-74.5 190v268 q0 32 9.5 54t23 37.5t30 27.5t30 23.5t23 25.5t9.5 35v16h-146z" />
<glyph unicode="&#xe04;" horiz-adv-x="817" d="M72 0v547q0 54 20 105.5t61.5 92.5t104 66t148.5 25t149.5 -25t105.5 -66t63 -92.5t21 -105.5v-547h-92v535q0 57 -20 98.5t-54 68.5t-79 40.5t-94 13.5t-93 -13.5t-77 -40.5t-52.5 -68.5t-19.5 -98.5v-95h213v-86h-213v-354h-92z" />
<glyph unicode="&#xe05;" horiz-adv-x="817" d="M72 0v614q0 47 18.5 85.5t48.5 67.5t68.5 46.5t79.5 22.5l121 -105l122 105q41 -5 79.5 -22.5t68.5 -46.5t48.5 -67.5t18.5 -85.5v-614h-92v610q0 27 -8.5 49.5t-22.5 40t-32 30t-37 18.5l-145 -130l-144 130q-20 -5 -38 -17t-32 -30t-22 -41t-8 -50v-170h192v-82h-192 v-358h-92z" />
<glyph unicode="&#xe06;" horiz-adv-x="817" d="M51 727v92h58l53 -41l55 41h72v-80q0 -43 -9.5 -70t-23 -45t-30 -30.5t-30 -27t-23 -34.5t-9.5 -53v-168q0 -43 22 -86t60 -78t89 -57t109 -22q46 0 84.5 13t66 40t43 67.5t15.5 96.5v534h92v-551q0 -59 -17 -110t-51.5 -89t-88.5 -59.5t-127 -21.5q-53 0 -99 12 t-83.5 32t-66.5 44.5t-48 50.5v-127h-92v508q0 32 9.5 54t23 37.5t30 27.5t30 23.5t23 25.5t9.5 35v16h-146z" />
<glyph unicode="&#xe07;" horiz-adv-x="760" d="M35 819h98l103 -739h174q34 0 70.5 11.5t66.5 49t49.5 109.5t19.5 192q0 88 -15.5 147t-44.5 93.5t-71 47.5t-96 9v80h62q70 0 119 -26t80 -75t45 -118t14 -154q0 -216 -64 -331t-201 -115h-297z" />
<glyph unicode="&#xe08;" horiz-adv-x="756" d="M16 414v73h84q39 0 56.5 -16t23.5 -51l62 -340h112q42 0 88 16.5t83.5 57t62 108t24.5 168.5q0 88 -21.5 150t-58 101t-84 57t-98.5 18q-36 0 -73.5 -11t-69.5 -32t-54.5 -51t-29.5 -68h-100q8 53 36.5 97.5t72.5 76.5t100.5 50t121.5 18q88 0 153.5 -30t109.5 -83.5 t66 -128t22 -162.5q0 -101 -23 -181.5t-67 -136t-107.5 -85t-145.5 -29.5h-204l-64 348q-3 18 -6.5 30.5t-10.5 20.5t-18.5 11.5t-29.5 3.5h-13z" />
<glyph unicode="&#xe09;" horiz-adv-x="801" d="M20 408v79h68q80 0 80 -77v-154q0 -106 52.5 -149.5t150.5 -43.5q54 0 102 22t84.5 58t58 80.5t21.5 89.5v219q0 62 -22 105t-58 70t-82 39t-94 12q-45 0 -86.5 -11.5t-75 -33t-57.5 -52t-33 -67.5h-100q11 54 42 99t77.5 76.5t107 49t131.5 17.5q75 0 138 -20 t108.5 -56.5t70.5 -87.5t25 -113v-559h-92v127q-19 -26 -46.5 -50.5t-63 -44.5t-80 -32t-97.5 -12q-73 0 -125 19t-85 52.5t-48.5 79.5t-15.5 101v114q0 32 -9 43t-32 11h-15z" />
<glyph unicode="&#xe0a;" horiz-adv-x="750" d="M72 0v819h92v-743h174q51 0 98 9.5t83 35t57.5 71t21.5 117.5q0 55 -18.5 98.5t-50.5 73.5t-75 46t-92 16v73q48 -2 91.5 10t76.5 37.5t51.5 64.5t16.5 91h100q4 -41 -5.5 -80t-33 -71t-59.5 -54.5t-84 -31.5v-2q39 -15 72.5 -39.5t58 -59.5t38 -81.5t13.5 -106.5 q0 -78 -23 -134t-64.5 -92.5t-97.5 -54t-122 -16.5z" />
<glyph unicode="&#xe0b;" horiz-adv-x="750" d="M51 727v92h58l53 -41l55 41h72v-80q0 -43 -9.5 -70t-23 -45t-30 -30.5t-30 -27t-23 -34.5t-9.5 -53v-403h174q51 0 98 9.5t83 35t57.5 71t21.5 117.5q0 55 -18.5 98.5t-50.5 73.5t-75 46t-92 16v73q48 -2 91.5 10t76.5 37.5t51.5 64.5t16.5 91h100q4 -41 -5.5 -80 t-33 -71t-59.5 -54.5t-84 -31.5v-2q39 -15 72.5 -39.5t58 -59.5t38 -81.5t13.5 -106.5q0 -78 -23 -134t-64.5 -92.5t-97.5 -54t-122 -16.5l-319 4v508q0 32 9.5 54t23 37.5t30 27.5t30 23.5t23 25.5t9.5 35v16h-146z" />
<glyph unicode="&#xe0c;" horiz-adv-x="1350" d="M49 590q10 56 41.5 101.5t78.5 77.5t107.5 49.5t129.5 17.5q71 0 133 -18.5t107.5 -53.5t72 -86t26.5 -115v-272q0 -52 18.5 -93.5t51 -70t76 -44t94.5 -15.5q40 0 76.5 12t64 38.5t44 67t16.5 97.5v536h92v-561q0 -61 -19.5 -110.5t-56 -85t-87.5 -55t-114 -19.5 q-91 0 -154.5 30.5t-101.5 79.5v-98h-92v549q0 54 -20 93t-54 64.5t-79 37.5t-94 12q-44 0 -85 -9.5t-75.5 -28t-60 -45.5t-38.5 -63l115 -71q-15 -6 -32 -20t-31.5 -31t-24.5 -35.5t-10 -34.5v-338h123v-80h-215v410q0 18 7.5 36.5t19.5 34t27 28t30 19.5z" />
<glyph unicode="&#xe0d;" horiz-adv-x="1329" d="M49 590q10 56 41.5 101.5t78.5 77.5t107.5 49.5t129.5 17.5q71 0 133 -18.5t107.5 -53.5t72 -86t26.5 -115v-297q0 -64 16.5 -102t42.5 -58t59.5 -26t68.5 -6q40 0 81.5 15.5t75.5 44t55 69.5t21 92v524h92v-729q0 -60 -15 -110.5t-50.5 -86.5t-93.5 -56.5t-144 -20.5 h-301v78h293q57 0 98.5 13t68 35.5t39.5 53.5t13 67v35q-15 -15 -37.5 -33.5t-54.5 -34t-75 -26t-99 -10.5q-51 0 -95.5 14t-78 43t-53 73.5t-19.5 106.5v318q0 54 -20 93t-54 64.5t-79 37.5t-94 12q-44 0 -85 -9.5t-75.5 -28t-60 -45.5t-38.5 -63l115 -71q-15 -6 -32 -20 t-31.5 -31t-24.5 -35.5t-10 -34.5v-338h123v-80h-215v410q0 18 7.5 36.5t19.5 34t27 28t30 19.5z" />
<glyph unicode="&#xe0e;" horiz-adv-x="827" d="M0 0v80h82v330q0 18 7.5 36.5t19.5 34t27 28t30 19.5l-107 62q10 56 41.5 101.5t78.5 77.5t107.5 49.5t129.5 17.5q71 0 133 -18.5t108 -53.5t72.5 -86t26.5 -115v-839h-248l-121 96l-119 -96h-186v83h164l141 107l141 -107h136v742q0 54 -20.5 93t-54.5 64.5t-79 37.5 t-94 12q-44 0 -85 -9.5t-75 -28t-59.5 -45.5t-38.5 -63l114 -71q-15 -6 -32 -20t-31.5 -31t-24.5 -35.5t-10 -34.5v-418h-174z" />
<glyph unicode="&#xe0f;" horiz-adv-x="827" d="M0 0v80h82v330q0 18 7.5 36.5t19.5 34t27 28t30 19.5l-107 62q10 56 41.5 101.5t78.5 77.5t107.5 49.5t129.5 17.5q71 0 133 -18.5t108 -53.5t72.5 -86t26.5 -115v-839h-228l-120 88l-119 -88h-207v178h88v-95h96l142 101l141 -101h115v742q0 54 -20.5 93t-54.5 64.5 t-79 37.5t-94 12q-44 0 -85 -9.5t-75 -28t-59.5 -45.5t-38.5 -63l114 -71q-15 -6 -32 -20t-31.5 -31t-24.5 -35.5t-10 -34.5v-418h-174z" />
<glyph unicode="&#xe10;" horiz-adv-x="756" d="M16 414v73h84q39 0 56.5 -16t23.5 -51l62 -340h112q42 0 88 16.5t83.5 57t62 108t24.5 168.5q0 88 -21.5 150t-58 101t-84 57t-98.5 18q-36 0 -73.5 -11t-69.5 -32t-54.5 -51t-29.5 -68h-100q8 53 36.5 97.5t72.5 76.5t100.5 50t121.5 18q50 0 91.5 -9.5t76.5 -27.5 q28 15 43 40t17 42h118q-2 -18 -10.5 -36.5t-22.5 -35.5t-35 -31t-48 -22q60 -54 90.5 -136.5t30.5 -187.5q0 -101 -23 -181.5t-67 -136t-107.5 -85t-145.5 -29.5h-204l-64 348q-3 18 -6.5 30.5t-10.5 20.5t-18.5 11.5t-29.5 3.5h-13zM72 -172h143l131 92l131 -92h98v92h93 v-176h-209l-113 80l-113 -80h-161v84z" />
<glyph unicode="&#xe11;" horiz-adv-x="815" d="M51 727v92h58l53 -41l55 41h72v-80q0 -43 -9.5 -70t-23 -45t-30 -30.5t-30 -27t-23 -34.5t-9.5 -53v-377l403 717h51q70 0 97.5 -31.5t27.5 -87.5v-700h-92v688q0 25 -8 39t-27 14l-419 -741h-125v508q0 32 9.5 54t23 37.5t30 27.5t30 23.5t23 25.5t9.5 35v16h-146z" />
<glyph unicode="&#xe12;" horiz-adv-x="1382" d="M51 401q0 93 26.5 171.5t75.5 135t117 87t152 28.5l125 -106l115 102h116v-528q0 -52 18.5 -93.5t51 -70t76 -44t94.5 -15.5q40 0 76 12t64 38.5t44.5 67t16.5 97.5v536h92v-561q0 -61 -19.5 -110.5t-56 -85t-87.5 -55t-114 -19.5q-91 0 -155 30.5t-101 79.5v-98h-92v725 l-139 -129l-158 141q-41 1 -84.5 -20.5t-79 -63t-58 -102.5t-22.5 -139q0 -99 31.5 -166.5t81.5 -107t113 -52t125 -2.5v-84q-107 -13 -190 12t-139.5 80t-86 134.5t-29.5 174.5z" />
<glyph unicode="&#xe13;" horiz-adv-x="1350" d="M49 590q10 56 41.5 101.5t78.5 77.5t107.5 49.5t129.5 17.5q71 0 133 -18.5t107.5 -53.5t72 -86t26.5 -115v-280q0 -57 15.5 -97.5t43 -67t64 -38.5t78.5 -12q51 0 95 14.5t76.5 43t50.5 70t18 95.5v528h92v-819h-92v98q-37 -49 -101 -79.5t-155 -30.5q-64 0 -115 19.5 t-87 55t-55.5 85t-19.5 110.5v291q0 54 -20 93t-54 64.5t-79 37.5t-94 12q-44 0 -85 -9.5t-75.5 -28t-60 -45.5t-38.5 -63l115 -71q-15 -6 -32 -20t-31.5 -31t-24.5 -35.5t-10 -34.5v-338h123v-80h-215v410q0 18 7.5 36.5t19.5 34t27 28t30 19.5z" />
<glyph unicode="&#xe14;" horiz-adv-x="829" d="M51 393q0 90 26 168.5t76 136.5t122 91t165 32l318 -2v-819h-92v737l-203 2q-65 1 -122.5 -19t-101 -62t-69 -106t-25.5 -151q0 -94 29 -156.5t74 -99t100.5 -50.5t108.5 -11v-84q-84 -7 -158 16.5t-129 74t-87 127t-32 175.5z" />
<glyph unicode="&#xe15;" horiz-adv-x="850" d="M51 401q0 93 26.5 171.5t75.5 135t117 87t152 28.5l125 -106l115 102h116v-819h-92v725l-139 -129l-158 141q-41 1 -84.5 -20.5t-79 -63t-58 -102.5t-22.5 -139q0 -99 31.5 -166.5t81.5 -107t113 -52t125 -2.5v-84q-107 -13 -190 12t-139.5 80t-86 134.5t-29.5 174.5z " />
<glyph unicode="&#xe16;" horiz-adv-x="817" d="M49 590q10 56 41.5 101.5t78.5 77.5t107.5 49.5t129.5 17.5q71 0 133 -18.5t107.5 -53.5t72 -86t26.5 -115v-563h-92v549q0 54 -20 93t-54 64.5t-79 37.5t-94 12q-44 0 -85 -9.5t-75.5 -28t-60 -45.5t-38.5 -63l115 -71q-15 -6 -32 -20t-31.5 -31t-24.5 -35.5t-10 -34.5 v-338h123v-80h-215v410q0 18 7.5 36.5t19.5 34t27 28t30 19.5z" />
<glyph unicode="&#xe17;" horiz-adv-x="817" d="M72 0v819h92v-127q19 25 48 50t66.5 45t83.5 32t99 12q73 0 127 -21.5t88.5 -59t51.5 -89t17 -110.5v-551h-92v535q0 55 -15.5 96t-43 68t-66 40t-84.5 13q-58 0 -109 -22t-89 -57t-60 -78.5t-22 -86.5v-508h-92z" />
<glyph unicode="&#xe18;" horiz-adv-x="760" d="M55 608q0 51 23.5 93t65.5 72t99 46.5t124 16.5q73 0 132.5 -16.5t103.5 -48t71 -76t33 -101.5h-101q-5 40 -26 70t-53 50.5t-73 31t-87 10.5q-51 0 -92 -12t-69.5 -31.5t-43.5 -46t-15 -54.5q0 -38 23.5 -59t62.5 -33t88.5 -18.5t101 -14t101 -20.5t88.5 -38t62.5 -66 t23.5 -105v-258h-637v369h93v-289h452v172q0 49 -23.5 78.5t-62.5 46.5t-88.5 25t-101 15.5t-101 17.5t-88.5 30t-62.5 54t-23.5 89z" />
<glyph unicode="&#xe19;" horiz-adv-x="817" d="M72 268v551h28q28 0 46 -18t18 -49v-467q0 -56 15.5 -96.5t43 -67.5t66 -40t84.5 -13q58 0 109 22t89 57t60 78t22 86v508h92v-819h-92v127q-19 -26 -48 -50.5t-66.5 -44.5t-83.5 -32t-99 -12q-74 0 -127.5 21.5t-88 59.5t-51.5 89t-17 110z" />
<glyph unicode="&#xe1a;" horiz-adv-x="817" d="M72 272v547h28q28 0 46 -18t18 -49v-467q0 -57 19.5 -99t52.5 -69t77 -40.5t93 -13.5t94 13.5t79 40.5t54 69t20 99v534h92v-547q0 -57 -21 -109.5t-63 -92t-105.5 -63t-149.5 -23.5t-148.5 23.5t-104 63t-61.5 92t-20 109.5z" />
<glyph unicode="&#xe1b;" horiz-adv-x="817" d="M72 272v547h28q28 0 46 -18t18 -49v-467q0 -57 19.5 -99t52.5 -69t77 -40.5t93 -13.5t94 13.5t79 40.5t54 69t20 99v739h92v-752q0 -57 -21 -109.5t-63 -92t-105.5 -63t-149.5 -23.5t-148.5 23.5t-104 63t-61.5 92t-20 109.5z" />
<glyph unicode="&#xe1c;" horiz-adv-x="954" d="M33 819h186v-74h-88l115 -600l198 674h70l199 -674l127 674h86l-158 -819h-90l-197 659h-2l-198 -659h-91z" />
<glyph unicode="&#xe1d;" horiz-adv-x="954" d="M33 819h186v-74h-88l115 -600l198 674h70l199 -674l166 879h86l-197 -1024h-90l-197 659h-2l-198 -659h-91z" />
<glyph unicode="&#xe1e;" horiz-adv-x="954" d="M33 819h86l127 -674l198 674h70l199 -674l127 674h86l-158 -819h-90l-197 659h-2l-198 -659h-91z" />
<glyph unicode="&#xe1f;" horiz-adv-x="954" d="M33 819h86l127 -674l198 674h70l199 -674l166 879h86l-197 -1024h-90l-197 659h-2l-198 -659h-91z" />
<glyph unicode="&#xe20;" horiz-adv-x="827" d="M0 0v80h82v330q0 18 7.5 36.5t19.5 34t27 28t30 19.5l-107 62q10 56 41.5 101.5t78.5 77.5t107.5 49.5t129.5 17.5q71 0 133 -18.5t108 -53.5t72.5 -86t26.5 -115v-563h-92v549q0 54 -20.5 93t-54.5 64.5t-79 37.5t-94 12q-44 0 -85 -9.5t-75 -28t-59.5 -45.5t-38.5 -63 l114 -71q-15 -6 -32 -20t-31.5 -31t-24.5 -35.5t-10 -34.5v-418h-174z" />
<glyph unicode="&#xe21;" horiz-adv-x="817" d="M72 0v819h28q28 0 46 -18t18 -49v-441q0 -43 22 -86t60 -78t89 -57t109 -22q46 0 84.5 13t66 40t43 67.5t15.5 96.5v534h92v-551q0 -59 -17 -110t-51.5 -89t-88.5 -59.5t-127 -21.5q-53 0 -99 12t-83.5 32t-66.5 44.5t-48 50.5v-127h-92z" />
<glyph unicode="&#xe22;" horiz-adv-x="809" d="M41 229q0 45 15.5 82.5t41.5 66.5t59.5 47t69.5 24v2q-31 2 -60.5 13.5t-52.5 33t-37 53.5t-14 76q0 45 17.5 81.5t47.5 61.5t69.5 38.5t83.5 12.5l86 -2v-82l-29 2q-32 2 -63.5 -3.5t-56.5 -20.5t-40.5 -39t-15.5 -58q0 -41 18.5 -66t47.5 -39t66 -19t73 -5v-81 q-49 1 -91 -10t-73 -33.5t-48.5 -56t-17.5 -75.5q0 -54 22.5 -84.5t57.5 -46.5t78 -20t84 -4l266 2v739h92v-819l-440 -2q-65 0 -113 17t-79.5 48t-47.5 73t-16 93z" />
<glyph unicode="&#xe23;" horiz-adv-x="770" d="M43 248h98q3 -56 30 -92.5t65 -57.5t80 -29t77 -8q45 0 87.5 10.5t75.5 31.5t53 52t20 72q0 53 -24.5 83t-65 46.5t-92 23.5t-105.5 12.5t-105.5 15t-92 30.5t-65 58.5t-24.5 99.5q0 53 24.5 97t67.5 76t101 49.5t125 17.5q69 0 129.5 -16.5t106 -48t74 -76t34.5 -101.5 h-94q-6 45 -31.5 76t-61.5 50.5t-77.5 28.5t-79.5 9q-48 0 -89.5 -12t-72 -33.5t-47.5 -51t-17 -63.5q0 -44 24.5 -67.5t65 -35.5t92 -16.5t105.5 -10.5t105.5 -17.5t92 -37.5t65 -70.5t24.5 -115.5q0 -60 -23.5 -105.5t-67 -76t-104 -46t-135.5 -15.5q-70 0 -131.5 16 t-108.5 49t-75.5 82.5t-32.5 116.5z" />
<glyph unicode="&#xe24;" horiz-adv-x="817" d="M49 590q10 56 41.5 101.5t78.5 77.5t107.5 49.5t129.5 17.5q71 0 133 -18.5t107.5 -53.5t72 -86t26.5 -115v-809h-92v795q0 54 -20 93t-54 64.5t-79 37.5t-94 12q-44 0 -85 -9.5t-75.5 -28t-60 -45.5t-38.5 -63l115 -71q-15 -6 -32 -20t-31.5 -31t-24.5 -35.5t-10 -34.5 v-338h123v-80h-215v410q0 18 7.5 36.5t19.5 34t27 28t30 19.5z" />
<glyph unicode="&#xe25;" horiz-adv-x="811" d="M51 264q0 66 25 122t69.5 96.5t106 63.5t135.5 23q42 0 80.5 -7t72.5 -18.5t61.5 -27t45.5 -33.5v90q0 48 -19.5 83t-52.5 57.5t-77 33.5t-92 11q-45 0 -84 -11t-70 -31.5t-53 -49t-31 -62.5h-98q7 46 34.5 88t70.5 74t100.5 51t125.5 19q78 0 141 -18t106.5 -51 t67 -79.5t23.5 -103.5v-584h-92v360q-11 22 -32 44.5t-52.5 41t-75 30t-98.5 11.5q-46 0 -90.5 -14.5t-79.5 -42.5t-56.5 -69.5t-21.5 -96.5q0 -68 28 -108.5t69.5 -61t89 -22.5t86.5 8v-84q-89 -15 -156.5 0t-113.5 52.5t-69.5 93.5t-23.5 122z" />
<glyph unicode="&#xe26;" horiz-adv-x="827" d="M0 0v80h82v330q0 18 7.5 36.5t19.5 34t27 28t30 19.5l-107 62q10 56 41.5 101.5t78.5 77.5t107.5 49.5t129.5 17.5q71 0 133 -18.5t108 -53.5t72.5 -86t26.5 -115v-809h-92v795q0 54 -20.5 93t-54.5 64.5t-79 37.5t-94 12q-44 0 -85 -9.5t-75 -28t-59.5 -45.5t-38.5 -63 l114 -71q-15 -6 -32 -20t-31.5 -31t-24.5 -35.5t-10 -34.5v-418h-174z" />
<glyph unicode="&#xe27;" horiz-adv-x="772" d="M43 229h104q7 -37 28.5 -66t51.5 -49.5t66.5 -31t73.5 -10.5t80.5 11.5t81.5 47t63.5 102t25.5 177.5q0 74 -11.5 127.5t-31 91t-45.5 61t-53.5 36.5t-56 17.5t-53.5 4.5q-40 0 -76 -12.5t-65 -33.5t-49 -50t-27 -62h-105q10 53 37 98t69 78t97.5 51.5t122.5 18.5 q90 0 155.5 -29.5t109 -85t64.5 -134.5t21 -177q0 -99 -21 -178t-64 -134t-109 -84.5t-156 -29.5q-68 0 -124.5 18.5t-99 51t-69 77.5t-35.5 98z" />
<glyph unicode="&#xe28;" horiz-adv-x="817" d="M72 0v547q0 54 20 105.5t61.5 92.5t104 66t148.5 25q52 0 95 -9t79 -26q23 15 35 38t12 42h118q-5 -31 -28 -65.5t-68 -57.5q50 -42 73 -97t23 -114v-547h-92v535q0 57 -20 98.5t-54 68.5t-79 40.5t-94 13.5t-93 -13.5t-77 -40.5t-52.5 -68.5t-19.5 -98.5v-95h213v-86 h-213v-354h-92z" />
<glyph unicode="&#xe29;" horiz-adv-x="817" d="M72 272v547h92v-534q0 -57 19.5 -99t52.5 -69t77 -40.5t93 -13.5t94 13.5t79 40.5t54 69t20 99v141q-8 -29 -32 -48.5t-56 -19.5q-19 0 -36 7t-29.5 20t-19.5 29.5t-7 36.5q0 19 7 36t19.5 29.5t29.5 19.5t36 7q32 0 56 -19.5t32 -50.5v346h92v-547q0 -57 -21 -109.5 t-63 -92t-105.5 -63t-149.5 -23.5t-148.5 23.5t-104 63t-61.5 92t-20 109.5z" />
<glyph unicode="&#xe2a;" horiz-adv-x="811" d="M51 264q0 66 25 122t69.5 96.5t106 63.5t135.5 23q42 0 80.5 -7t72.5 -18.5t61.5 -27t45.5 -33.5v90q0 48 -19.5 83t-52.5 57.5t-77 33.5t-92 11q-45 0 -84 -11t-70 -31.5t-53 -49t-31 -62.5h-98q7 46 34.5 88t70.5 74t100.5 51t125.5 19q53 0 97.5 -8t83.5 -23 q23 12 35 34t12 42h119q-3 -15 -9 -32t-17 -33t-28 -29.5t-41 -22.5q86 -69 86 -180v-584h-92v360q-11 22 -32 44.5t-52.5 41t-75 30t-98.5 11.5q-46 0 -90.5 -14.5t-79.5 -42.5t-56.5 -69.5t-21.5 -96.5q0 -68 28 -108.5t69.5 -61t89 -22.5t86.5 8v-84q-89 -15 -156.5 0 t-113.5 52.5t-69.5 93.5t-23.5 122z" />
<glyph unicode="&#xe2b;" horiz-adv-x="817" d="M72 0v819h92v-258q14 22 37 49t53.5 51.5t68 44.5t80.5 29h-127v84h469v-84h-213q55 -10 95.5 -34.5t66.5 -60.5t38.5 -82t12.5 -97v-461h-92v444q0 112 -50.5 165t-143.5 53q-60 0 -113.5 -30.5t-94 -75.5t-64 -96.5t-23.5 -94.5v-365h-92z" />
<glyph unicode="&#xe2c;" horiz-adv-x="954" d="M33 819h86l125 -727l200 727h70l201 -727l90 526q12 73 -18 115t-93 58v59q42 0 76 14t57.5 38t35.5 55.5t9 66.5h89q4 -38 -7 -73t-33 -62.5t-53.5 -46.5t-68.5 -23v-2q21 -7 40.5 -22t33.5 -36.5t20.5 -49.5t1.5 -60l-111 -649h-120l-183 659h-2l-184 -659h-121z" />
<glyph unicode="&#xe2d;" horiz-adv-x="887" d="M51 412q0 17 1 30.5t1 22.5h385v-86h-284q2 -79 29 -137t68.5 -95.5t92 -56t100.5 -18.5q52 0 104.5 17.5t93.5 57.5t67 105t26 160t-27.5 159.5t-70.5 103.5t-94 56t-99 17q-43 0 -83.5 -12t-75 -34.5t-62 -56t-43.5 -76.5l-96 29q18 52 51.5 96t79.5 75.5t103.5 49 t125.5 17.5q88 0 160.5 -30.5t124 -86t79.5 -133.5t28 -174t-28 -175t-79 -135t-123.5 -87t-161.5 -31t-161.5 31t-124 87t-79.5 135t-28 175z" />
<glyph unicode="&#xe2e;" horiz-adv-x="887" d="M51 412q0 17 1 30.5t1 22.5h385v-86h-284q2 -79 29 -137t68.5 -95.5t92 -56t100.5 -18.5q52 0 104.5 17.5t93.5 57.5t67 105t26 160t-27.5 159.5t-70.5 103.5t-94 56t-99 17q-43 0 -83.5 -12t-75 -34.5t-62 -56t-43.5 -76.5l-96 29q18 52 51.5 96t79.5 75.5t103.5 49 t125.5 17.5q47 0 89 -9t79 -24q20 14 31.5 36.5t11.5 41.5h119q-5 -29 -27 -63t-65 -56q74 -56 114 -145.5t40 -204.5q0 -96 -28 -175t-79 -135t-123.5 -87t-161.5 -31t-161.5 31t-124 87t-79.5 135t-28 175z" />
<glyph unicode="&#xe2f;" horiz-adv-x="762" d="M51 684q0 30 11 55.5t30.5 44t45.5 28.5t57 9l55 -2v-78l-21 2q-16 2 -31 -2t-27 -12.5t-19 -20.5t-7 -26q0 -48 41 -73t109 -25q43 0 91 16t90 46.5t73.5 74t42.5 98.5h98v-819h-92v674q-21 -29 -50 -58.5t-69 -54t-93 -40t-120 -15.5q-49 0 -89 13t-68 36.5t-43 56 t-15 72.5z" />
<glyph unicode="&#xe30;" horiz-adv-x="487" d="M72 102v166h92v-82h252v-84h-344zM72 551v166h92v-82h252v-84h-344z" />
<glyph unicode="&#xe31;" d="M-403 922v157h92v-75h493v-82h-585z" />
<glyph unicode="&#xe32;" horiz-adv-x="457" d="M31 733v86h69q78 0 132.5 -23t88.5 -64.5t49 -99.5t15 -128v-504h-92v487q0 58 -9.5 103.5t-33 77t-62.5 48.5t-98 17h-59z" />
<glyph unicode="&#xe33;" horiz-adv-x="457" d="M-209 1012q0 32 24.5 56t67.5 24q44 0 67 -24t23 -56t-23 -56t-67 -24q-43 0 -67.5 24t-24.5 56zM31 733v86h69q78 0 132.5 -23t88.5 -64.5t49 -99.5t15 -128v-504h-92v487q0 58 -9.5 103.5t-33 77t-62.5 48.5t-98 17h-59z" />
<glyph unicode="&#xe34;" d="M-731 922v82h659v-23q0 -59 -88 -59h-571z" />
<glyph unicode="&#xe35;" d="M-731 922v82h567v102h92v-184h-659z" />
<glyph unicode="&#xe36;" d="M-731 922v82h506q2 48 29.5 73t78.5 25q50 0 76.5 -26.5t26.5 -63.5q0 -17 -7 -33t-20.5 -29t-32.5 -20.5t-43 -7.5h-614z" />
<glyph unicode="&#xe37;" d="M-731 922v82h414v102h92v-102h61v102h92v-184h-659z" />
<glyph unicode="&#xe38;" d="M-264 -61h192v-246h-92v160h-100v86z" />
<glyph unicode="&#xe39;" d="M-453 -61h136v-82q0 -22 5.5 -35.5t15 -21t23.5 -10.5t31 -3t31 3t24.5 10.5t16.5 21t6 35.5v82h92v-82q0 -82 -41.5 -113t-128.5 -31q-90 0 -129 32t-39 97v21h-43v76z" />
<glyph unicode="&#xe3a;" d="M-193 -131q0 31 22 50.5t54 19.5t54 -19.5t22 -50.5q0 -29 -22 -49.5t-54 -20.5t-54 20.5t-22 49.5z" />
<glyph unicode="&#xe3f;" horiz-adv-x="768" d="M111 0v965h221v100h71v-104q49 -5 93 -19.5t77 -42.5t52.5 -70t19.5 -102q0 -93 -42.5 -147.5t-133.5 -71.5v-4q46 -8 84 -27t65 -48.5t41.5 -68t14.5 -86.5q0 -65 -20.5 -111.5t-57 -79t-86 -51t-107.5 -26.5v-129h-71v123h-29h-192zM207 82h98h27v379h-41h-84v-379z M209 543h106h17v340h-123v-340zM403 90q36 7 68 20t56 34.5t38.5 52t14.5 73.5q0 47 -13.5 79.5t-37.5 54t-56.5 33.5t-69.5 18v-365zM403 551q29 6 56 18t47.5 32.5t32.5 50t12 71.5q0 40 -13 67.5t-34 45.5t-47.5 28t-53.5 15v-328z" />
<glyph unicode="&#xe40;" horiz-adv-x="317" d="M113 0v819h92v-819h-92z" />
<glyph unicode="&#xe41;" horiz-adv-x="512" d="M113 0v819h92v-819h-92zM307 0v819h92v-819h-92z" />
<glyph unicode="&#xe42;" horiz-adv-x="358" d="M57 1098q0 55 41 87t109 32q30 0 53.5 -2.5t46.5 -6t47 -6t56 -2.5q46 0 79 6v-80q-24 -6 -63 -6q-53 0 -102.5 6.5t-88 8.5t-62 -6.5t-23.5 -38.5q0 -18 11.5 -31.5t26 -28.5t26 -35t11.5 -51v-944h-92v913q0 35 -12 55t-26 37t-26 37.5t-12 55.5z" />
<glyph unicode="&#xe43;" horiz-adv-x="358" d="M-84 1079q-8 40 4.5 75t39.5 60.5t66.5 40.5t86.5 15q101 0 151 -37t55 -92q3 -32 -3 -54t-16.5 -37.5t-23.5 -27.5t-24.5 -25.5t-19 -30t-7.5 -40.5v-926h-92v942q0 40 15 62.5t33 38.5t33 31t15 40q0 40 -29.5 62t-84.5 22q-23 0 -45.5 -8t-38.5 -23.5t-24 -37.5 t-3 -50h-88z" />
<glyph unicode="&#xe44;" horiz-adv-x="358" d="M-131 1126v80q33 -6 80 -6q31 0 55.5 2.5t47.5 6t46.5 6t53.5 2.5q68 0 108.5 -27.5t40.5 -83.5q0 -35 -12 -56.5t-26 -40t-26 -39.5t-12 -57v-913h-92v934q0 32 12 54t26 38.5t26 31t12 32.5q0 30 -23.5 38.5t-62 6.5t-88.5 -8.5t-103 -6.5q-18 0 -34.5 1.5t-28.5 4.5z " />
<glyph unicode="&#xe45;" horiz-adv-x="539" d="M31 733v86h141q74 0 129.5 -25t92 -68.5t55 -102.5t18.5 -127v-742h-92v719q0 57 -12.5 104.5t-39 82t-68.5 54t-101 19.5h-123z" />
<glyph unicode="&#xe46;" horiz-adv-x="772" d="M51 625q0 38 11.5 73t34.5 62t57.5 43t81.5 16h65l135 -121l129 121h135v-1065h-92v994l-172 -168l-166 151q-20 2 -42 -1t-40.5 -14.5t-30.5 -33t-12 -55.5q0 -33 11.5 -53t29.5 -30.5t40.5 -13t43.5 -0.5v-86q-44 -6 -83.5 0t-69.5 27t-48 58.5t-18 95.5z" />
<glyph unicode="&#xe47;" d="M-676 922v94q0 36 12.5 66.5t39.5 52.5t69 34.5t102 12.5h342v-78h-344q-57 0 -93 -20t-36 -62v-21h135l105 62l104 -62h129v-79h-145l-88 59l-92 -59h-240z" />
<glyph unicode="&#xe48;" d="M-164 1167v185h92v-185h-92z" />
<glyph unicode="&#xe49;" d="M-338 1274v78h57q29 0 48 -7.5t30 -20t15 -28.5t4 -34v-21h288v-74h-380v58q0 32 -15 40.5t-35 8.5h-12z" />
<glyph unicode="&#xe4a;" d="M-377 1167v60q0 32 9.5 55t26.5 37.5t39 21.5t48 7h23l71 -48l72 48h22q51 0 87 -27t36 -80h95v-74h-179v58q0 23 -13 38t-30 13l-90 -64l-90 64q-18 2 -31.5 -13t-13.5 -38v-58h-82z" />
<glyph unicode="&#xe4b;" d="M-254 1255v54h94v90h84v-90h96v-54h-96v-88h-84v88h-94z" />
<glyph unicode="&#xe4c;" d="M-250 1085v39q0 31 11 53.5t30.5 37t46 21.5t56.5 7h100v-69h-76q-74 0 -74 -66v-23h-94z" />
<glyph unicode="&#xe4d;" d="M-209 1012q0 32 24.5 56t67.5 24q44 0 67 -24t23 -56t-23 -56t-67 -24q-43 0 -67.5 24t-24.5 56z" />
<glyph unicode="&#xe4e;" d="M-452 1133q0 42 24 75.5t66 53.5q34 21 82 24q-43 21 -43 74q0 21 9.5 42.5t26.5 41t40.5 35.5t50.5 26q54 23 118 28t133 5h25v-100q-26 2 -46 3t-34 1q-44 0 -82.5 -5t-67 -15.5t-45.5 -26.5t-17 -37q0 -29 29 -35t92 -6v-94q-20 2 -35.5 3t-28.5 1q-40 0 -74 -6 t-59.5 -16.5t-40 -26t-14.5 -33.5q0 -29 49 -29q31 0 58.5 9.5t58.5 23.5l49 -82q-35 -19 -80 -33t-90 -14q-6 2 -9 2h-7h-11q-57 6 -92 36t-35 75z" />
<glyph unicode="&#xe4f;" horiz-adv-x="983" d="M72 410q0 87 33 163t90 133t133.5 90t163.5 33t163 -33t133 -90t90 -133t33 -163t-33 -163.5t-90 -133.5t-133 -90t-163 -33t-163.5 33t-133.5 90t-90 133.5t-33 163.5zM133 410q0 -74 28.5 -139.5t77 -114t114 -77t139.5 -28.5q73 0 138.5 28.5t114 77t77 114 t28.5 139.5q0 73 -28.5 138.5t-77 114t-114 77t-138.5 28.5q-74 0 -139.5 -28.5t-114 -77t-77 -114t-28.5 -138.5zM236 410q0 53 20 99.5t54.5 81.5t81.5 55t100 20t99.5 -20t81.5 -55t55 -81.5t20 -99.5t-20 -100t-55 -81.5t-81.5 -54.5t-99.5 -20t-100 20t-81.5 54.5 t-54.5 81.5t-20 100z" />
<glyph unicode="&#xe50;" horiz-adv-x="756" d="M51 309q0 67 20.5 124.5t61 100t102 67t142.5 24.5t142.5 -24t103 -66.5t62 -100.5t20.5 -125q0 -68 -20.5 -126t-62 -101t-103 -67.5t-142.5 -24.5t-142.5 24.5t-102 67.5t-61 101t-20.5 126zM147 309q0 -53 16.5 -96.5t47 -74t73 -47.5t93.5 -17t94 17t74 47.5t48 74 t17 96.5q0 54 -17 97t-48 73t-74 46t-94 16t-93.5 -16t-73 -46t-47 -73t-16.5 -97z" />
<glyph unicode="&#xe51;" horiz-adv-x="754" d="M51 387q0 49 22.5 92.5t63.5 75.5t98 51t125 19q82 0 146 -22t108.5 -62.5t67 -99t20.5 -130.5q-2 -78 -31.5 -138.5t-82 -103t-124.5 -65.5t-157 -24q-68 -2 -119.5 4.5t-78.5 15.5l-17 76q37 -10 89 -16t108 -3q78 5 137.5 26.5t99.5 55t60 78.5t20 96q0 58 -19 100.5 t-52 71t-78 42.5t-97 14q-49 0 -88.5 -12.5t-67 -33.5t-42.5 -49t-15 -59q0 -40 16.5 -64.5t42.5 -37.5t57.5 -16.5t62.5 -0.5v-80l-15 -4q-51 -6 -98 1.5t-83 31t-57.5 65.5t-21.5 105z" />
<glyph unicode="&#xe52;" horiz-adv-x="958" d="M4 786l82 43q38 -15 58 -49.5t20 -81.5v-620h631v444l-160 -133l-160 125q-19 0 -38 -6.5t-34 -23t-24.5 -44t-9.5 -69.5q0 -36 7.5 -60t22 -38t35 -18.5t47.5 -2.5v-78q-54 -5 -92.5 4t-63.5 32.5t-37 60t-14 85.5q-3 115 43 175.5t127 60.5h64l127 -96l129 96h123v-592 h-815v666q0 38 -16.5 70.5t-51.5 49.5z" />
<glyph unicode="&#xe53;" horiz-adv-x="766" d="M51 297q0 77 17 137t46 101.5t69 63.5t85 22h29l131 -119l131 112h135v-614h-92v543l-174 -160l-160 147q-8 0 -27.5 -8.5t-40.5 -33t-37 -70t-16 -119.5q0 -76 14 -120t38 -65.5t56.5 -27t68.5 -4.5v-84l-31 -2q-71 -5 -117.5 16.5t-74.5 62.5t-39 98t-11 124z" />
<glyph unicode="&#xe54;" horiz-adv-x="799" d="M51 276q0 144 85.5 223t244.5 79h268v241h99v-323h-312q-149 0 -217.5 -53t-68.5 -158q0 -225 327 -201q-31 8 -49 30.5t-18 53.5q0 37 26.5 63.5t69.5 26.5t69.5 -26.5t26.5 -63.5q0 -31 -18 -53.5t-47 -30.5h192v-84h-367q-65 0 -121.5 15.5t-98.5 49t-66.5 85.5 t-24.5 126z" />
<glyph unicode="&#xe55;" horiz-adv-x="809" d="M51 276q0 134 74 211t211 88q-22 11 -34.5 31t-12.5 45q0 41 33.5 66.5t83.5 25.5q49 0 82.5 -25.5t33.5 -66.5q0 -23 -10.5 -42t-32.5 -31h191v241h98v-323h-332q-149 0 -217.5 -53t-68.5 -158q0 -225 327 -201q-31 8 -49 30.5t-18 53.5q0 37 26.5 63.5t69.5 26.5 t69.5 -26.5t26.5 -63.5q0 -31 -18 -53.5t-47 -30.5h192v-84h-367q-65 0 -121.5 15.5t-98.5 49t-66.5 85.5t-24.5 126z" />
<glyph unicode="&#xe56;" horiz-adv-x="752" d="M6 780l80 49q34 -15 57 -46.5t23 -73.5v-215q8 12 25 29t45.5 33t69.5 27t97 11q82 0 139 -22.5t92 -62t50.5 -94.5t15.5 -120q0 -84 -23 -142.5t-65.5 -94.5t-102.5 -52t-134 -16q-62 0 -115 12.5t-92.5 39t-63.5 67.5t-28 98h104q3 -33 19.5 -58t43 -41.5t62 -25 t76.5 -8.5q47 0 86.5 11.5t68.5 37.5t45.5 68t16.5 104q0 111 -54.5 163t-162.5 52q-79 0 -131 -30.5t-74 -73.5h-104v262q0 42 -18.5 69.5t-47.5 42.5z" />
<glyph unicode="&#xe57;" horiz-adv-x="1024" d="M51 297q0 77 17 137t46 101.5t69 63.5t85 22h29l131 -119l131 112h135v-538q51 -2 84.5 8.5t53 31.5t27 52.5t7.5 71.5v446q0 53 25.5 88t56.5 55l68 -43q-25 -20 -44.5 -49t-19.5 -71v-459q0 -105 -58.5 -158t-160.5 -51l-131 2v543l-174 -160l-160 147q-8 0 -27.5 -8.5 t-40.5 -33t-37 -70t-16 -119.5q0 -76 14 -120t38 -65.5t56.5 -27t68.5 -4.5v-84l-31 -2q-71 -5 -117.5 16.5t-74.5 62.5t-39 98t-11 124z" />
<glyph unicode="&#xe58;" horiz-adv-x="772" d="M51 285q0 64 14.5 117.5t48 92.5t87.5 61t133 22h262v241h98v-323h-301q-65 0 -111.5 -11t-76.5 -36t-44 -65.5t-14 -98.5q0 -72 10.5 -112t25.5 -60t32.5 -24.5t32.5 -4.5l172 156l176 -154v168h98v-254h-129l-147 133l-139 -133l-62 -2q-35 -2 -65.5 13.5t-53 50 t-35 90t-12.5 133.5z" />
<glyph unicode="&#xe59;" horiz-adv-x="868" d="M51 287q0 145 59.5 219t180.5 74h139l78 -187l41 119q14 40 40 54t66 14h72v137q0 21 6.5 38.5t17 32t24 25t26.5 16.5l80 -51q-9 -5 -18.5 -13t-17.5 -19.5t-13 -25.5t-5 -32v-192h-131q-29 0 -45.5 -8.5t-25.5 -38.5l-35 -113q-5 -15 -7.5 -37.5t-3.5 -46.5t1 -46 t8 -36l65 -170h-90l-192 494q-47 4 -88 -0.5t-71 -25.5t-47.5 -63.5t-17.5 -115.5q0 -69 12.5 -112t37 -65.5t61.5 -27.5t86 0v-86l-51 -2q-73 -3 -120 18t-74 60t-37.5 93.5t-10.5 119.5z" />
<glyph unicode="&#xe5a;" horiz-adv-x="931" d="M51 684q0 30 11 55.5t30.5 44t45.5 28.5t57 9l55 -2v-78l-21 2q-16 2 -31 -2t-27 -12.5t-19 -20.5t-7 -26q0 -48 41 -73t109 -25q43 0 91 16t90 46.5t73.5 74t42.5 98.5h98v-819h-92v674q-21 -29 -50 -58.5t-69 -54t-93 -40t-120 -15.5q-49 0 -89 13t-68 36.5t-43 56 t-15 72.5zM771 0v819h91v-819h-91z" />
<glyph unicode="&#xe5b;" horiz-adv-x="1393" d="M61 414q0 149 70 243q35 51 80.5 75t99.5 24q43 0 82 -18.5t68 -52t46 -79.5t17 -100q0 -44 -10 -79t-28.5 -60t-43.5 -38.5t-55 -13.5q-24 0 -46.5 10.5t-39.5 28.5t-27 42.5t-10 52.5q0 27 10 51t27 43t38.5 30t45.5 11l21 -2q-35 80 -93 80q-32 0 -59.5 -19t-47.5 -53 t-32 -81t-12 -103t13.5 -100t37.5 -74.5t57.5 -47t73.5 -16.5q47 0 88.5 24.5t74.5 69.5t57 109.5t36 144.5q8 50 19.5 66t37.5 16q10 0 22.5 -12t25.5 -32t26 -47t25 -58l12 73q15 58 41 58q19 0 45.5 -32.5t46.5 -86.5q16 82 45 82q23 0 46.5 -29.5t47.5 -77.5 q13 38 24.5 58t31.5 20q14 0 30.5 -18.5t30.5 -44.5q16 33 47 28l111 -14q18 0 35.5 -10t17.5 -21q0 -12 -17.5 -23.5t-37.5 -13.5l-103 -10q-6 -20 -19 -38.5t-30 -18.5q-15 0 -31 22q-5 5 -11 17t-17 30q-11 -37 -27 -64.5t-33 -27.5q-14 0 -31 28.5t-40 76.5 q-8 -29 -15 -50.5t-12 -33.5q-18 -41 -39 -41q-19 0 -47 63q-8 17 -14.5 35t-14.5 35q-6 -28 -16 -56t-22 -50.5t-24 -37t-22 -14.5q-34 0 -45 35q-5 19 -6.5 31.5t-3.5 23.5q-3 22 -18 62q-17 -69 -45.5 -128t-65.5 -98q-100 -112 -227 -112q-62 0 -112 24.5t-86 68.5 t-55.5 106.5t-19.5 138.5zM336 449q0 -26 14.5 -43t34.5 -17q49 0 49 60q0 61 -49 61q-19 0 -34 -17.5t-15 -43.5z" />
<glyph unicode="&#x2000;" horiz-adv-x="799" />
<glyph unicode="&#x2001;" horiz-adv-x="1599" />
<glyph unicode="&#x2002;" horiz-adv-x="799" />
<glyph unicode="&#x2003;" horiz-adv-x="1599" />
<glyph unicode="&#x2004;" horiz-adv-x="533" />
<glyph unicode="&#x2005;" horiz-adv-x="399" />
<glyph unicode="&#x2006;" horiz-adv-x="266" />
<glyph unicode="&#x2007;" horiz-adv-x="266" />
<glyph unicode="&#x2008;" horiz-adv-x="199" />
<glyph unicode="&#x2009;" horiz-adv-x="319" />
<glyph unicode="&#x200a;" horiz-adv-x="88" />
<glyph unicode="&#x200c;" />
<glyph unicode="&#x200d;" />
<glyph unicode="&#x2010;" horiz-adv-x="461" d="M57 326v94h346v-94h-346z" />
<glyph unicode="&#x2011;" horiz-adv-x="461" d="M57 326v94h346v-94h-346z" />
<glyph unicode="&#x2012;" horiz-adv-x="461" d="M57 326v94h346v-94h-346z" />
<glyph unicode="&#x2013;" horiz-adv-x="829" d="M63 303v94h701v-94h-701z" />
<glyph unicode="&#x2014;" horiz-adv-x="1659" d="M63 303v94h1530v-94h-1530z" />
<glyph unicode="&#x2018;" horiz-adv-x="375" d="M123 608v158q0 33 8 65.5t24.5 60t41.5 48t59 29.5v-64q-18 -7 -31.5 -22.5t-22.5 -35.5t-13 -41.5t-3 -39.5h64v-158h-127z" />
<glyph unicode="&#x2019;" horiz-adv-x="375" d="M117 604v64q18 7 31.5 22.5t22 35.5t12.5 41.5t3 39.5h-63v158h127v-158q0 -33 -8 -65.5t-24.5 -60t-41.5 -48t-59 -29.5z" />
<glyph unicode="&#x201c;" horiz-adv-x="592" d="M123 608v158q0 33 8 65.5t24.5 60t41.5 48t59 29.5v-64q-18 -7 -31.5 -22.5t-22.5 -35.5t-13 -41.5t-3 -39.5h64v-158h-127zM342 608v158q0 33 8 65.5t24.5 60t41.5 48t59 29.5v-64q-18 -7 -31.5 -22.5t-22.5 -35.5t-12.5 -41.5t-2.5 -39.5h63v-158h-127z" />
<glyph unicode="&#x201d;" horiz-adv-x="592" d="M117 604v64q18 7 31.5 22.5t22 35.5t12.5 41.5t3 39.5h-63v158h127v-158q0 -33 -8 -65.5t-24.5 -60t-41.5 -48t-59 -29.5zM336 604v64q18 7 31.5 22.5t22.5 35.5t13 41.5t3 39.5h-64v158h127v-158q0 -33 -8 -65.5t-24.5 -60t-41.5 -48t-59 -29.5z" />
<glyph unicode="&#x2022;" horiz-adv-x="758" d="M72 410q0 64 24 120t65.5 97.5t97.5 65.5t120 24t120 -24t97.5 -65.5t65.5 -97.5t24 -120t-24 -120t-65.5 -98t-97.5 -66t-120 -24t-120 24t-97.5 66t-65.5 98t-24 120z" />
<glyph unicode="&#x2026;" horiz-adv-x="1382" d="M176 0v117h111v-117h-111zM635 0v117h113v-117h-113zM1096 0v117h112v-117h-112z" />
<glyph unicode="&#x202f;" horiz-adv-x="319" />
<glyph unicode="&#x205f;" horiz-adv-x="399" />
<glyph unicode="&#x25fc;" horiz-adv-x="705" d="M0 0v705h705v-705h-705z" />
<glyph unicode="&#xf700;" horiz-adv-x="756" d="M16 414v73h84q39 0 56.5 -16t23.5 -51l62 -340h112q42 0 88 16.5t83.5 57t62 108t24.5 168.5q0 88 -21.5 150t-58 101t-84 57t-98.5 18q-36 0 -73.5 -11t-69.5 -32t-54.5 -51t-29.5 -68h-100q8 53 36.5 97.5t72.5 76.5t100.5 50t121.5 18q50 0 91.5 -9.5t76.5 -27.5 q28 15 43 40t17 42h118q-2 -18 -10.5 -36.5t-22.5 -35.5t-35 -31t-48 -22q60 -54 90.5 -136.5t30.5 -187.5q0 -101 -23 -181.5t-67 -136t-107.5 -85t-145.5 -29.5h-204l-64 348q-3 18 -6.5 30.5t-10.5 20.5t-18.5 11.5t-29.5 3.5h-13z" />
<glyph unicode="&#xf701;" d="M-844 922v82h578v-23q0 -59 -88 -59h-490z" />
<glyph unicode="&#xf702;" d="M-844 922v82h486v102h92v-184h-578z" />
<glyph unicode="&#xf703;" d="M-844 922v82h424q2 48 30 73t79 25q49 0 75.5 -26.5t26.5 -63.5q0 -17 -7 -33t-20.5 -29t-32 -20.5t-42.5 -7.5h-533z" />
<glyph unicode="&#xf704;" d="M-844 922v82h332v102h92v-102h62v102h92v-184h-578z" />
<glyph unicode="&#xf705;" d="M-406 922v245h93v-245h-93z" />
<glyph unicode="&#xf706;" d="M-535 1040v86h66q32 0 53 -8t33 -22t16.5 -32t4.5 -38v-22h360v-82h-463v63q0 18 -4.5 29t-12.5 17t-18 7.5t-20 1.5h-15z" />
<glyph unicode="&#xf707;" d="M-745 922v65q0 36 10.5 61.5t29.5 42t43.5 24t53.5 7.5h24l80 -53l80 53h25q28 0 53 -8t43.5 -23t29.5 -37t11 -50h260v-82h-352v63q0 26 -14.5 42.5t-34.5 14.5l-101 -71l-100 71q-20 2 -34.5 -14.5t-14.5 -42.5v-63h-92z" />
<glyph unicode="&#xf708;" d="M-539 1018v61h107v99h92v-99h109v-61h-109v-96h-92v96h-107z" />
<glyph unicode="&#xf709;" d="M-481 922v41q0 32 11.5 55.5t31.5 38.5t48 22.5t60 7.5h105v-71h-80q-78 0 -78 -70v-24h-98z" />
<glyph unicode="&#xf70a;" d="M-164 922v245h92v-245h-92z" />
<glyph unicode="&#xf70b;" d="M-416 1040v86h66q32 0 52.5 -8t32.5 -22t16.5 -32t4.5 -38v-22h320v-82h-422v63q0 18 -4.5 29t-12.5 17t-18 7.5t-20 1.5h-15z" />
<glyph unicode="&#xf70c;" d="M-651 922v65q0 36 10.5 61.5t29.5 42t43.5 24t53.5 7.5h25l79 -53l80 53h25q28 0 53 -8t44 -23t29.5 -37t10.5 -50h105v-82h-197v63q0 26 -14.5 42.5t-34.5 14.5l-101 -71l-100 71q-20 2 -34.5 -14.5t-14.5 -42.5v-63h-92z" />
<glyph unicode="&#xf70d;" d="M-379 1018v61h107v99h92v-99h108v-61h-108v-96h-92v96h-107z" />
<glyph unicode="&#xf70e;" d="M-276 922v41q0 32 11.5 55.5t31.5 38.5t48 22.5t60 7.5h105v-71h-80q-78 0 -78 -70v-24h-98z" />
<glyph unicode="&#xf70f;" horiz-adv-x="1329" d="M49 590q10 56 41.5 101.5t78.5 77.5t107.5 49.5t129.5 17.5q71 0 133 -18.5t107.5 -53.5t72 -86t26.5 -115v-289q0 -57 15 -97t42.5 -65.5t65.5 -37t84 -11.5q47 0 86 11.5t67.5 37t44 65.5t15.5 97v545h92v-557q0 -57 -17 -108t-54 -88.5t-95 -59.5t-139 -22t-137.5 22 t-92.5 59.5t-52.5 88.5t-16.5 108v287q0 54 -20 93t-54 64.5t-79 37.5t-94 12q-44 0 -85 -9.5t-75.5 -28t-60 -45.5t-38.5 -63l115 -71q-15 -6 -32 -20t-31.5 -31t-24.5 -35.5t-10 -34.5v-338h123v-80h-215v410q0 18 7.5 36.5t19.5 34t27 28t30 19.5z" />
<glyph unicode="&#xf710;" d="M-588 922v157h92v-75h494v-82h-586z" />
<glyph unicode="&#xf711;" d="M-403 1012q0 32 24 56t68 24q43 0 66.5 -24t23.5 -56t-23.5 -56t-66.5 -24q-44 0 -68 24t-24 56z" />
<glyph unicode="&#xf712;" d="M-795 922v94q0 36 12.5 66.5t39.5 52.5t69.5 34.5t102.5 12.5h342v-78h-344q-57 0 -93 -20t-36 -62v-21h135l104 62l105 -62h129v-79h-146l-88 59l-92 -59h-240z" />
<glyph unicode="&#xf713;" d="M-358 1167v185h92v-185h-92z" />
<glyph unicode="&#xf714;" d="M-506 1274v78h57q29 0 48 -7.5t30 -20t15 -28.5t4 -34v-21h289v-74h-381v58q0 32 -15 40.5t-35 8.5h-12z" />
<glyph unicode="&#xf715;" d="M-557 1167v60q0 32 9.5 55t26.5 37.5t39 21.5t48 7h22l72 -48l72 48h22q51 0 87 -27t36 -80h94v-74h-178v58q0 23 -13 38t-30 13l-90 -64l-90 64q-19 2 -32 -13t-13 -38v-58h-82z" />
<glyph unicode="&#xf716;" d="M-449 1255v54h95v90h84v-90h96v-54h-96v-88h-84v88h-95z" />
<glyph unicode="&#xf717;" d="M-438 1085v39q0 31 11 53.5t30.5 37t45.5 21.5t56 7h100v-69h-75q-74 0 -74 -66v-23h-94z" />
<glyph unicode="&#xf718;" d="M-264 -328h192v-245h-92v159h-100v86z" />
<glyph unicode="&#xf719;" d="M-453 -328h136v-82q0 -43 20.5 -56t54.5 -13q17 0 31 3t24.5 10.5t16.5 21t6 34.5v82h92v-82q0 -81 -41.5 -112t-128.5 -31q-90 0 -129 32t-39 97v21h-43v75z" />
<glyph unicode="&#xf71a;" d="M-223 -397q0 31 22 50t54 19t53.5 -19t21.5 -50q0 -29 -21.5 -49.5t-53.5 -20.5t-54 20.5t-22 49.5z" />
<glyph unicode="&#xf71d;" />
<glyph unicode="&#xf880;" />
<glyph horiz-adv-x="457" d="M-403 1012q0 32 24 56t68 24q43 0 66.5 -24t23.5 -56t-23.5 -56t-66.5 -24q-44 0 -68 24t-24 56zM31 733v86h69q78 0 132.5 -23t88.5 -64.5t49 -99.5t15 -128v-504h-92v487q0 58 -9.5 103.5t-33 77t-62.5 48.5t-98 17h-59z" />
<glyph d="M-541 1133q0 42 24 75.5t66 53.5q34 21 82 24q-43 21 -43 74q0 21 9.5 42.5t26.5 41t40.5 35.5t50.5 26q54 23 118 28t133 5h25v-100q-26 2 -46 3t-34 1q-44 0 -82.5 -5t-67 -15.5t-45.5 -26.5t-17 -37q0 -29 29 -35t92 -6v-94q-20 2 -35.5 3t-28.5 1q-40 0 -74 -6 t-59.5 -16.5t-40 -26t-14.5 -33.5q0 -29 49 -29q31 0 58.5 9.5t58.5 23.5l49 -82q-35 -19 -80 -33t-90 -14q-6 2 -9 2h-7h-11q-57 6 -92 36t-35 75z" />
<glyph />
<glyph />
<glyph d="M-844 922v82h332v102h92v-102h62v102h92v-184h-578zM-436 1167v185h92v-185h-92z" />
<glyph d="M-840 922v82h660v-23q0 -59 -88 -59h-572z" />
<glyph d="M-840 922v82h568v102h92v-184h-660z" />
</font>
</defs>
</svg>
